u2194_ 600 - 30.ufo
<glyph name="dollar" format="1">
  <advance width="761"/>
  <unicode hex="0024"/>
  <outline>
    <contour>
      <point x="351" y="341" type="line"/>
      <point x="229" y="413" type="line"/>
      <point x="351" y="454" type="line"/>
    </contour>
    <contour>
      <point x="529" y="168" type="line"/>
      <point x="411" y="184" type="line"/>
      <point x="411" y="237" type="line"/>
    </contour>
    <contour>
      <point x="411" y="-1" type="curve" smooth="yes"/>
      <point x="411" y="123" type="line"/>
      <point x="670" y="88" type="line" smooth="yes"/>
      <point x="705" y="83"/>
      <point x="719" y="126"/>
      <point x="689" y="143" type="curve" smooth="yes"/>
      <point x="411" y="306" type="line"/>
      <point x="411" y="475" type="line"/>
      <point x="691" y="571" type="line" smooth="yes"/>
      <point x="706" y="576"/>
      <point x="715" y="593"/>
      <point x="709" y="609" type="curve" smooth="yes"/>
      <point x="704" y="624"/>
      <point x="687" y="633"/>
      <point x="671" y="627" type="curve" smooth="yes"/>
      <point x="411" y="538" type="line"/>
      <point x="411" y="799" type="line" smooth="yes"/>
      <point x="411" y="815"/>
      <point x="397" y="829"/>
      <point x="381" y="829" type="curve" smooth="yes"/>
      <point x="365" y="829"/>
      <point x="351" y="815"/>
      <point x="351" y="799" type="curve" smooth="yes"/>
      <point x="351" y="518" type="line"/>
      <point x="147" y="448" type="line" smooth="yes"/>
      <point x="121" y="439"/>
      <point x="118" y="408"/>
      <point x="142" y="394" type="curve" smooth="yes"/>
      <point x="351" y="272" type="line"/>
      <point x="351" y="192" type="line"/>
      <point x="84" y="229" type="line" smooth="yes"/>
      <point x="68" y="231"/>
      <point x="52" y="219"/>
      <point x="50" y="203" type="curve" smooth="yes"/>
      <point x="48" y="187"/>
      <point x="60" y="171"/>
      <point x="76" y="169" type="curve" smooth="yes"/>
      <point x="351" y="132" type="line"/>
      <point x="351" y="-1" type="line" smooth="yes"/>
      <point x="351" y="-17"/>
      <point x="365" y="-31"/>
      <point x="381" y="-31" type="curve" smooth="yes"/>
      <point x="397" y="-31"/>
      <point x="411" y="-17"/>
    </contour>
  </outline>
</glyph>
<glyph name="ampersand" format="1">
  <advance width="561"/>
  <unicode hex="0026"/>
  <outline>
    <contour>
      <point x="499" y="-23" type="curve" smooth="yes"/>
      <point x="512" y="-13"/>
      <point x="515" y="6"/>
      <point x="505" y="19" type="curve" smooth="yes"/>
      <point x="241" y="371" type="line"/>
      <point x="480" y="370" type="line" smooth="yes"/>
      <point x="496" y="370"/>
      <point x="510" y="384"/>
      <point x="510" y="400" type="curve" smooth="yes"/>
      <point x="510" y="416"/>
      <point x="496" y="430"/>
      <point x="480" y="430" type="curve" smooth="yes"/>
      <point x="80" y="431" type="line" smooth="yes"/>
      <point x="64" y="431"/>
      <point x="50" y="417"/>
      <point x="50" y="401" type="curve" smooth="yes"/>
      <point x="50" y="385"/>
      <point x="64" y="371"/>
      <point x="80" y="371" type="curve" smooth="yes"/>
      <point x="166" y="371" type="line"/>
      <point x="457" y="-17" type="line" smooth="yes"/>
      <point x="467" y="-30"/>
      <point x="486" y="-33"/>
    </contour>
  </outline>
</glyph>
<glyph name="asterisk" format="1">
  <advance width="560"/>
  <unicode hex="002A"/>
  <outline>
    <contour>
      <point x="301" y="723" type="curve" smooth="yes"/>
      <point x="290" y="735"/>
      <point x="270" y="735"/>
      <point x="259" y="723" type="curve" smooth="yes"/>
      <point x="59" y="523" type="line" smooth="yes"/>
      <point x="47" y="512"/>
      <point x="47" y="492"/>
      <point x="59" y="481" type="curve" smooth="yes"/>
      <point x="70" y="469"/>
      <point x="90" y="469"/>
      <point x="101" y="481" type="curve" smooth="yes"/>
      <point x="301" y="681" type="line" smooth="yes"/>
      <point x="313" y="692"/>
      <point x="313" y="712"/>
    </contour>
    <contour>
      <point x="155" y="276" type="curve" smooth="yes"/>
      <point x="333" y="381" type="line"/>
      <point x="406" y="284" type="line" smooth="yes"/>
      <point x="416" y="271"/>
      <point x="435" y="268"/>
      <point x="448" y="278" type="curve" smooth="yes"/>
      <point x="461" y="288"/>
      <point x="464" y="307"/>
      <point x="454" y="320" type="curve" smooth="yes"/>
      <point x="385" y="412" type="line"/>
      <point x="495" y="476" type="line" smooth="yes"/>
      <point x="509" y="484"/>
      <point x="514" y="503"/>
      <point x="506" y="517" type="curve" smooth="yes"/>
      <point x="498" y="531"/>
      <point x="479" y="536"/>
      <point x="465" y="528" type="curve" smooth="yes"/>
      <point x="349" y="460" type="line"/>
      <point x="304" y="520" type="line" smooth="yes"/>
      <point x="294" y="533"/>
      <point x="275" y="536"/>
      <point x="262" y="526" type="curve" smooth="yes"/>
      <point x="249" y="516"/>
      <point x="246" y="497"/>
      <point x="256" y="484" type="curve" smooth="yes"/>
      <point x="297" y="429" type="line"/>
      <point x="125" y="328" type="line" smooth="yes"/>
      <point x="111" y="320"/>
      <point x="106" y="301"/>
      <point x="114" y="287" type="curve" smooth="yes"/>
      <point x="122" y="273"/>
      <point x="141" y="268"/>
    </contour>
  </outline>
</glyph>
<glyph name="period" format="1">
  <advance width="160"/>
  <unicode hex="002E"/>
  <outline>
    <contour>
      <point x="80" y="40" type="curve" smooth="yes"/>
      <point x="64" y="40"/>
      <point x="50" y="26"/>
      <point x="50" y="10" type="curve" smooth="yes"/>
      <point x="50" y="0" type="line" smooth="yes"/>
      <point x="50" y="-16"/>
      <point x="64" y="-30"/>
      <point x="80" y="-30" type="curve" smooth="yes"/>
      <point x="96" y="-30"/>
      <point x="110" y="-16"/>
      <point x="110" y="0" type="curve" smooth="yes"/>
      <point x="110" y="10" type="line" smooth="yes"/>
      <point x="110" y="26"/>
      <point x="96" y="40"/>
    </contour>
  </outline>
</glyph>
<glyph name="zero" format="1">
  <advance width="760"/>
  <unicode hex="0030"/>
  <outline>
    <contour>
      <point x="253" y="282" type="line"/>
      <point x="166" y="166" type="line"/>
      <point x="113" y="221" type="line"/>
      <point x="219" y="742" type="line"/>
      <point x="466" y="562" type="line"/>
    </contour>
    <contour>
      <point x="301" y="245" type="line"/>
      <point x="514" y="526" type="line"/>
      <point x="635" y="437" type="line"/>
      <point x="280" y="47" type="line"/>
      <point x="208" y="122" type="line"/>
    </contour>
    <contour>
      <point x="303" y="-20" type="curve" smooth="yes"/>
      <point x="305" y="-17"/>
      <point x="308" y="-14"/>
      <point x="309" y="-11" type="curve"/>
      <point x="702" y="422" type="line" smooth="yes"/>
      <point x="715" y="435"/>
      <point x="712" y="455"/>
      <point x="698" y="466" type="curve" smooth="yes"/>
      <point x="550" y="574" type="line"/>
      <point x="658" y="716" type="line" smooth="yes"/>
      <point x="668" y="729"/>
      <point x="665" y="748"/>
      <point x="652" y="758" type="curve" smooth="yes"/>
      <point x="639" y="768"/>
      <point x="620" y="765"/>
      <point x="610" y="752" type="curve" smooth="yes"/>
      <point x="502" y="609" type="line"/>
      <point x="217" y="818" type="line" smooth="yes"/>
      <point x="198" y="832"/>
      <point x="175" y="823"/>
      <point x="170" y="800" type="curve" smooth="yes"/>
      <point x="51" y="218" type="line" smooth="yes"/>
      <point x="49" y="209"/>
      <point x="52" y="197"/>
      <point x="58" y="191" type="curve" smooth="yes"/>
      <point x="129" y="118" type="line"/>
      <point x="96" y="74" type="line" smooth="yes"/>
      <point x="86" y="61"/>
      <point x="89" y="42"/>
      <point x="102" y="32" type="curve" smooth="yes"/>
      <point x="115" y="22"/>
      <point x="134" y="25"/>
      <point x="144" y="38" type="curve" smooth="yes"/>
      <point x="171" y="74" type="line"/>
      <point x="253" y="-11" type="line"/>
      <point x="255" y="-15"/>
      <point x="257" y="-18"/>
      <point x="260" y="-20" type="curve" smooth="yes"/>
      <point x="266" y="-26"/>
      <point x="273" y="-28"/>
      <point x="281" y="-28" type="curve"/>
      <point x="289" y="-28"/>
      <point x="297" y="-25"/>
    </contour>
  </outline>
</glyph>
<glyph name="one" format="1">
  <advance width="760"/>
  <unicode hex="0031"/>
  <outline>
    <contour>
      <point x="80" y="-29" type="curve" smooth="yes"/>
      <point x="680" y="-29" type="line" smooth="yes"/>
      <point x="696" y="-29"/>
      <point x="710" y="-15"/>
      <point x="710" y="1" type="curve" smooth="yes"/>
      <point x="710" y="17"/>
      <point x="696" y="31"/>
      <point x="680" y="31" type="curve" smooth="yes"/>
      <point x="223" y="31" type="line"/>
      <point x="408" y="551" type="line" smooth="yes"/>
      <point x="415" y="570"/>
      <point x="404" y="588"/>
      <point x="384" y="591" type="curve" smooth="yes"/>
      <point x="84" y="631" type="line" smooth="yes"/>
      <point x="68" y="633"/>
      <point x="52" y="621"/>
      <point x="50" y="605" type="curve" smooth="yes"/>
      <point x="48" y="589"/>
      <point x="60" y="573"/>
      <point x="76" y="571" type="curve" smooth="yes"/>
      <point x="339" y="536" type="line"/>
      <point x="159" y="31" type="line"/>
      <point x="80" y="31" type="line" smooth="yes"/>
      <point x="64" y="31"/>
      <point x="50" y="17"/>
      <point x="50" y="1" type="curve" smooth="yes"/>
      <point x="50" y="-15"/>
      <point x="64" y="-29"/>
    </contour>
  </outline>
</glyph>
<glyph name="two" format="1">
  <advance width="761"/>
  <unicode hex="0032"/>
  <outline>
    <contour>
      <point x="81" y="-30" type="curve" smooth="yes"/>
      <point x="681" y="-30" type="line" smooth="yes"/>
      <point x="697" y="-30"/>
      <point x="711" y="-16"/>
      <point x="711" y="0" type="curve" smooth="yes"/>
      <point x="711" y="16"/>
      <point x="697" y="30"/>
      <point x="681" y="30" type="curve" smooth="yes"/>
      <point x="159" y="30" type="line"/>
      <point x="544" y="379" type="line" smooth="yes"/>
      <point x="562" y="394"/>
      <point x="558" y="419"/>
      <point x="537" y="428" type="curve" smooth="yes"/>
      <point x="93" y="627" type="line" smooth="yes"/>
      <point x="79" y="634"/>
      <point x="60" y="627"/>
      <point x="54" y="612" type="curve" smooth="yes"/>
      <point x="47" y="598"/>
      <point x="54" y="579"/>
      <point x="69" y="573" type="curve" smooth="yes"/>
      <point x="470" y="392" type="line"/>
      <point x="61" y="22" type="line" smooth="yes"/>
      <point x="39" y="2"/>
      <point x="51" y="-30"/>
    </contour>
  </outline>
</glyph>
<glyph name="three" format="1">
  <advance width="760"/>
  <unicode hex="0033"/>
  <outline>
    <contour>
      <point x="609" y="8" type="curve" smooth="yes"/>
      <point x="710" y="596" type="line" smooth="yes"/>
      <point x="713" y="615"/>
      <point x="699" y="631"/>
      <point x="680" y="631" type="curve" smooth="yes"/>
      <point x="80" y="631" type="line" smooth="yes"/>
      <point x="64" y="631"/>
      <point x="50" y="617"/>
      <point x="50" y="601" type="curve" smooth="yes"/>
      <point x="50" y="585"/>
      <point x="64" y="571"/>
      <point x="80" y="571" type="curve" smooth="yes"/>
      <point x="644" y="571" type="line"/>
      <point x="556" y="54" type="line"/>
      <point x="91" y="229" type="line" smooth="yes"/>
      <point x="75" y="235"/>
      <point x="58" y="227"/>
      <point x="52" y="212" type="curve" smooth="yes"/>
      <point x="46" y="196"/>
      <point x="54" y="179"/>
      <point x="69" y="173" type="curve" smooth="yes"/>
      <point x="569" y="-15" type="line" smooth="yes"/>
      <point x="587" y="-22"/>
      <point x="606" y="-12"/>
    </contour>
  </outline>
</glyph>
<glyph name="four" format="1">
  <advance width="720"/>
  <unicode hex="0034"/>
  <outline>
    <contour>
      <point x="640" y="-29" type="curve" smooth="yes"/>
      <point x="656" y="-29"/>
      <point x="670" y="-15"/>
      <point x="670" y="1" type="curve" smooth="yes"/>
      <point x="670" y="600" type="line" smooth="yes"/>
      <point x="670" y="616"/>
      <point x="656" y="630"/>
      <point x="640" y="630" type="curve" smooth="yes"/>
      <point x="624" y="630"/>
      <point x="610" y="616"/>
      <point x="610" y="600" type="curve" smooth="yes"/>
      <point x="610" y="143" type="line"/>
      <point x="122" y="317" type="line"/>
      <point x="367" y="786" type="line" smooth="yes"/>
      <point x="374" y="801"/>
      <point x="368" y="819"/>
      <point x="354" y="827" type="curve" smooth="yes"/>
      <point x="339" y="834"/>
      <point x="321" y="828"/>
      <point x="313" y="814" type="curve" smooth="yes"/>
      <point x="53" y="314" type="line" smooth="yes"/>
      <point x="45" y="297"/>
      <point x="52" y="278"/>
      <point x="70" y="272" type="curve" smooth="yes"/>
      <point x="610" y="79" type="line"/>
      <point x="610" y="1" type="line" smooth="yes"/>
      <point x="610" y="-15"/>
      <point x="624" y="-29"/>
    </contour>
  </outline>
</glyph>
<glyph name="five" format="1">
  <advance width="761"/>
  <unicode hex="0035"/>
  <outline>
    <contour>
      <point x="80" y="171" type="curve" smooth="yes"/>
      <point x="680" y="171" type="line" smooth="yes"/>
      <point x="715" y="171"/>
      <point x="723" y="217"/>
      <point x="690" y="229" type="curve" smooth="yes"/>
      <point x="177" y="412" type="line"/>
      <point x="572" y="771" type="line"/>
      <point x="680" y="771" type="line" smooth="yes"/>
      <point x="696" y="771"/>
      <point x="710" y="785"/>
      <point x="710" y="801" type="curve" smooth="yes"/>
      <point x="710" y="817"/>
      <point x="696" y="831"/>
      <point x="680" y="831" type="curve" smooth="yes"/>
      <point x="560" y="831" type="line" smooth="yes"/>
      <point x="554" y="831"/>
      <point x="545" y="828"/>
      <point x="540" y="823" type="curve" smooth="yes"/>
      <point x="100" y="423" type="line" smooth="yes"/>
      <point x="82" y="407"/>
      <point x="87" y="381"/>
      <point x="110" y="373" type="curve" smooth="yes"/>
      <point x="507" y="231" type="line"/>
      <point x="80" y="231" type="line" smooth="yes"/>
      <point x="64" y="231"/>
      <point x="50" y="217"/>
      <point x="50" y="201" type="curve" smooth="yes"/>
      <point x="50" y="185"/>
      <point x="64" y="171"/>
    </contour>
  </outline>
</glyph>
<glyph name="six" format="1">
  <advance width="761"/>
  <unicode hex="0036"/>
  <outline>
    <contour>
      <point x="635" y="392" type="curve" smooth="yes"/>
      <point x="216" y="591" type="line"/>
      <point x="654" y="589" type="line"/>
      <point x="659" y="578"/>
      <point x="670" y="571"/>
      <point x="682" y="571" type="curve" smooth="yes"/>
      <point x="698" y="571"/>
      <point x="711" y="585"/>
      <point x="711" y="602" type="curve" smooth="yes"/>
      <point x="711" y="619" type="line" smooth="yes"/>
      <point x="710" y="636"/>
      <point x="697" y="649"/>
      <point x="681" y="649" type="curve" smooth="yes"/>
      <point x="81" y="652" type="line" smooth="yes"/>
      <point x="56" y="652"/>
      <point x="44" y="628"/>
      <point x="52" y="610" type="curve"/>
      <point x="47" y="598"/>
      <point x="54" y="580"/>
      <point x="69" y="573" type="curve" smooth="yes"/>
      <point x="611" y="337" type="line" smooth="yes"/>
      <point x="647" y="322"/>
      <point x="671" y="375"/>
    </contour>
  </outline>
</glyph>
<glyph name="seven" format="1">
  <advance width="687"/>
  <unicode hex="0037"/>
  <outline>
    <contour>
      <point x="305" y="-20" type="curve" smooth="yes"/>
      <point x="632" y="472" type="line" smooth="yes"/>
      <point x="641" y="486"/>
      <point x="637" y="505"/>
      <point x="623" y="514" type="curve" smooth="yes"/>
      <point x="116" y="823" type="line" smooth="yes"/>
      <point x="112" y="825"/>
      <point x="105" y="827"/>
      <point x="100" y="827" type="curve" smooth="yes"/>
      <point x="80" y="827" type="line" smooth="yes"/>
      <point x="64" y="827"/>
      <point x="50" y="813"/>
      <point x="50" y="797" type="curve" smooth="yes"/>
      <point x="50" y="781"/>
      <point x="64" y="767"/>
      <point x="80" y="767" type="curve" smooth="yes"/>
      <point x="92" y="767" type="line"/>
      <point x="565" y="479" type="line"/>
      <point x="255" y="14" type="line" smooth="yes"/>
      <point x="246" y="0"/>
      <point x="250" y="-19"/>
      <point x="263" y="-28" type="curve" smooth="yes"/>
      <point x="277" y="-37"/>
      <point x="296" y="-33"/>
    </contour>
  </outline>
</glyph>
<glyph name="nine" format="1">
  <advance width="761"/>
  <unicode hex="0039"/>
  <outline>
    <contour>
      <point x="680" y="149" type="line" smooth="yes"/>
      <point x="705" y="149"/>
      <point x="717" y="173"/>
      <point x="709" y="191" type="curve"/>
      <point x="714" y="203"/>
      <point x="707" y="221"/>
      <point x="692" y="228" type="curve" smooth="yes"/>
      <point x="150" y="464" type="line" smooth="yes"/>
      <point x="114" y="479"/>
      <point x="90" y="426"/>
      <point x="126" y="409" type="curve" smooth="yes"/>
      <point x="545" y="210" type="line"/>
      <point x="107" y="212" type="line"/>
      <point x="102" y="223"/>
      <point x="91" y="230"/>
      <point x="79" y="230" type="curve" smooth="yes"/>
      <point x="63" y="230"/>
      <point x="50" y="216"/>
      <point x="50" y="199" type="curve" smooth="yes"/>
      <point x="50" y="182" type="line" smooth="yes"/>
      <point x="51" y="165"/>
      <point x="64" y="152"/>
      <point x="80" y="152" type="curve" smooth="yes"/>
    </contour>
  </outline>
</glyph>
<glyph name="semicolon" format="1">
  <advance width="260"/>
  <unicode hex="003B"/>
  <outline>
    <contour>
      <point x="180" y="553" type="curve" smooth="yes"/>
      <point x="196" y="553"/>
      <point x="210" y="567"/>
      <point x="210" y="583" type="curve" smooth="yes"/>
      <point x="210" y="592" type="line" smooth="yes"/>
      <point x="210" y="608"/>
      <point x="196" y="622"/>
      <point x="180" y="622" type="curve" smooth="yes"/>
      <point x="164" y="622"/>
      <point x="150" y="608"/>
      <point x="150" y="592" type="curve" smooth="yes"/>
      <point x="150" y="583" type="line" smooth="yes"/>
      <point x="150" y="567"/>
      <point x="164" y="553"/>
    </contour>
    <contour>
      <point x="193" y="219" type="curve" smooth="yes"/>
      <point x="179" y="226"/>
      <point x="160" y="220"/>
      <point x="153" y="205" type="curve" smooth="yes"/>
      <point x="53" y="5" type="line" smooth="yes"/>
      <point x="46" y="-9"/>
      <point x="52" y="-28"/>
      <point x="67" y="-35" type="curve" smooth="yes"/>
      <point x="81" y="-42"/>
      <point x="100" y="-36"/>
      <point x="107" y="-21" type="curve" smooth="yes"/>
      <point x="207" y="179" type="line" smooth="yes"/>
      <point x="214" y="193"/>
      <point x="208" y="212"/>
    </contour>
  </outline>
</glyph>
<glyph name="equal" format="1">
  <advance width="760"/>
  <unicode hex="003D"/>
  <outline>
    <contour>
      <point x="50" y="438" type="curve" smooth="yes"/>
      <point x="50" y="422"/>
      <point x="64" y="408"/>
      <point x="80" y="408" type="curve" smooth="yes"/>
      <point x="680" y="408" type="line" smooth="yes"/>
      <point x="696" y="408"/>
      <point x="710" y="422"/>
      <point x="710" y="438" type="curve" smooth="yes"/>
      <point x="710" y="454"/>
      <point x="696" y="468"/>
      <point x="680" y="468" type="curve" smooth="yes"/>
      <point x="80" y="468" type="line" smooth="yes"/>
      <point x="64" y="468"/>
      <point x="50" y="454"/>
    </contour>
    <contour>
      <point x="50" y="138" type="curve" smooth="yes"/>
      <point x="50" y="122"/>
      <point x="64" y="108"/>
      <point x="80" y="108" type="curve" smooth="yes"/>
      <point x="680" y="108" type="line" smooth="yes"/>
      <point x="696" y="108"/>
      <point x="710" y="122"/>
      <point x="710" y="138" type="curve" smooth="yes"/>
      <point x="710" y="154"/>
      <point x="696" y="168"/>
      <point x="680" y="168" type="curve" smooth="yes"/>
      <point x="80" y="168" type="line" smooth="yes"/>
      <point x="64" y="168"/>
      <point x="50" y="154"/>
    </contour>
  </outline>
</glyph>
<glyph name="greater" format="1">
  <advance width="160"/>
  <unicode hex="003E"/>
  <outline>
    <contour>
      <point x="80" y="550" type="curve" smooth="yes"/>
      <point x="64" y="550"/>
      <point x="50" y="536"/>
      <point x="50" y="520" type="curve" smooth="yes"/>
      <point x="50" y="120" type="line" smooth="yes"/>
      <point x="50" y="104"/>
      <point x="64" y="90"/>
      <point x="80" y="90" type="curve" smooth="yes"/>
      <point x="96" y="90"/>
      <point x="110" y="104"/>
      <point x="110" y="120" type="curve" smooth="yes"/>
      <point x="110" y="520" type="line" smooth="yes"/>
      <point x="110" y="536"/>
      <point x="96" y="550"/>
    </contour>
  </outline>
</glyph>
<glyph name="question" format="1">
  <advance width="632"/>
  <unicode hex="003F"/>
  <outline>
    <contour>
      <point x="306" y="186" type="curve" smooth="yes"/>
      <point x="578" y="717" type="line" smooth="yes"/>
      <point x="591" y="742"/>
      <point x="571" y="767"/>
      <point x="543" y="759" type="curve" smooth="yes"/>
      <point x="72" y="628" type="line" smooth="yes"/>
      <point x="56" y="624"/>
      <point x="47" y="607"/>
      <point x="51" y="591" type="curve" smooth="yes"/>
      <point x="55" y="575"/>
      <point x="72" y="566"/>
      <point x="88" y="570" type="curve" smooth="yes"/>
      <point x="493" y="683" type="line"/>
      <point x="252" y="214" type="line" smooth="yes"/>
      <point x="245" y="199"/>
      <point x="251" y="181"/>
      <point x="265" y="173" type="curve" smooth="yes"/>
      <point x="280" y="166"/>
      <point x="298" y="172"/>
    </contour>
    <contour>
      <point x="279" y="-30" type="curve" smooth="yes"/>
      <point x="295" y="-30"/>
      <point x="309" y="-16"/>
      <point x="309" y="0" type="curve" smooth="yes"/>
      <point x="309" y="11" type="line" smooth="yes"/>
      <point x="309" y="27"/>
      <point x="295" y="41"/>
      <point x="279" y="41" type="curve" smooth="yes"/>
      <point x="263" y="41"/>
      <point x="249" y="27"/>
      <point x="249" y="11" type="curve" smooth="yes"/>
      <point x="249" y="0" type="line" smooth="yes"/>
      <point x="249" y="-16"/>
      <point x="263" y="-30"/>
    </contour>
  </outline>
</glyph>
<glyph name="at" format="1">
  <advance width="650"/>
  <unicode hex="0040"/>
  <outline>
    <contour>
      <point x="500" y="-64" type="curve" smooth="yes"/>
      <point x="512" y="-53"/>
      <point x="513" y="-34"/>
      <point x="502" y="-22" type="curve" smooth="yes"/>
      <point x="125" y="395" type="line"/>
      <point x="524" y="678" type="line"/>
      <point x="503" y="577" type="line"/>
      <point x="502" y="578" type="line"/>
      <point x="502" y="579"/>
      <point x="501" y="579"/>
      <point x="500" y="580" type="curve"/>
      <point x="500" y="580"/>
      <point x="499" y="581"/>
      <point x="499" y="581" type="curve"/>
      <point x="498" y="582"/>
      <point x="497" y="583"/>
      <point x="496" y="583" type="curve"/>
      <point x="495" y="584"/>
      <point x="495" y="584"/>
      <point x="494" y="584" type="curve"/>
      <point x="493" y="585"/>
      <point x="492" y="585"/>
      <point x="491" y="586" type="curve"/>
      <point x="491" y="586"/>
      <point x="490" y="586"/>
      <point x="490" y="586" type="curve"/>
      <point x="484" y="588"/>
      <point x="485" y="588"/>
      <point x="486" y="587" type="curve"/>
      <point x="481" y="588"/>
      <point x="483" y="588"/>
      <point x="484" y="588" type="curve"/>
      <point x="483" y="588" type="line" smooth="yes"/>
      <point x="481" y="588" type="line"/>
      <point x="480" y="588" type="line" smooth="yes"/>
      <point x="479" y="588" type="line"/>
      <point x="481" y="588"/>
      <point x="479" y="588"/>
      <point x="477" y="588" type="curve"/>
      <point x="478" y="588"/>
      <point x="476" y="588"/>
      <point x="474" y="587" type="curve"/>
      <point x="473" y="587"/>
      <point x="473" y="587"/>
      <point x="472" y="587" type="curve"/>
      <point x="471" y="587"/>
      <point x="470" y="586"/>
      <point x="469" y="586" type="curve"/>
      <point x="468" y="585"/>
      <point x="468" y="585"/>
      <point x="467" y="585" type="curve"/>
      <point x="466" y="584"/>
      <point x="465" y="584"/>
      <point x="464" y="583" type="curve"/>
      <point x="464" y="583"/>
      <point x="463" y="582"/>
      <point x="462" y="582" type="curve"/>
      <point x="462" y="581"/>
      <point x="461" y="581"/>
      <point x="460" y="580" type="curve"/>
      <point x="460" y="580"/>
      <point x="459" y="579"/>
      <point x="458" y="578" type="curve"/>
      <point x="458" y="578"/>
      <point x="457" y="577"/>
      <point x="457" y="577" type="curve"/>
      <point x="456" y="576"/>
      <point x="455" y="575"/>
      <point x="455" y="574" type="curve"/>
      <point x="455" y="574"/>
      <point x="454" y="573"/>
      <point x="454" y="572" type="curve"/>
      <point x="453" y="572"/>
      <point x="453" y="571"/>
      <point x="452" y="569" type="curve"/>
      <point x="452" y="569"/>
      <point x="452" y="568"/>
      <point x="452" y="568" type="curve"/>
      <point x="450" y="562"/>
      <point x="450" y="564"/>
      <point x="451" y="564" type="curve"/>
      <point x="450" y="560"/>
      <point x="450" y="561"/>
      <point x="450" y="562" type="curve"/>
      <point x="450" y="561" type="line" smooth="yes"/>
      <point x="415" y="163" type="line" smooth="yes"/>
      <point x="412" y="134"/>
      <point x="443" y="122"/>
      <point x="461" y="135" type="curve"/>
      <point x="467" y="131"/>
      <point x="473" y="128"/>
      <point x="480" y="128" type="curve" smooth="yes"/>
      <point x="496" y="128"/>
      <point x="510" y="142"/>
      <point x="510" y="158" type="curve" smooth="yes"/>
      <point x="510" y="324" type="line"/>
      <point x="599" y="740" type="line" smooth="yes"/>
      <point x="605" y="769"/>
      <point x="576" y="788"/>
      <point x="552" y="771" type="curve" smooth="yes"/>
      <point x="63" y="425" type="line" smooth="yes"/>
      <point x="48" y="414"/>
      <point x="45" y="394"/>
      <point x="58" y="380" type="curve" smooth="yes"/>
      <point x="458" y="-62" type="line" smooth="yes"/>
      <point x="469" y="-74"/>
      <point x="488" y="-75"/>
    </contour>
  </outline>
</glyph>
<glyph name="A" format="1">
  <advance width="748"/>
  <unicode hex="0041"/>
  <outline>
    <contour>
      <point x="668" y="-34" type="curve" smooth="yes"/>
      <point x="684" y="-34"/>
      <point x="698" y="-20"/>
      <point x="698" y="-4" type="curve" smooth="yes"/>
      <point x="698" y="360" type="line" smooth="yes"/>
      <point x="698" y="367"/>
      <point x="694" y="376"/>
      <point x="690" y="381" type="curve" smooth="yes"/>
      <point x="288" y="816" type="line" smooth="yes"/>
      <point x="271" y="835"/>
      <point x="245" y="829"/>
      <point x="237" y="805" type="curve" smooth="yes"/>
      <point x="52" y="235" type="line" smooth="yes"/>
      <point x="44" y="212"/>
      <point x="62" y="192"/>
      <point x="86" y="197" type="curve" smooth="yes"/>
      <point x="638" y="309" type="line"/>
      <point x="638" y="-4" type="line" smooth="yes"/>
      <point x="638" y="-20"/>
      <point x="652" y="-34"/>
    </contour>
    <contour>
      <point x="125" y="266" type="line"/>
      <point x="279" y="738" type="line"/>
      <point x="621" y="367" type="line"/>
    </contour>
  </outline>
</glyph>
<glyph name="C" format="1">
  <advance width="754"/>
  <unicode hex="0043"/>
  <outline>
    <contour>
      <point x="95" y="63" type="curve" smooth="yes"/>
      <point x="679" y="168" type="line" smooth="yes"/>
      <point x="695" y="171"/>
      <point x="706" y="187"/>
      <point x="704" y="203" type="curve" smooth="yes"/>
      <point x="701" y="219"/>
      <point x="685" y="230"/>
      <point x="669" y="228" type="curve" smooth="yes"/>
      <point x="119" y="129" type="line"/>
      <point x="111" y="649" type="line"/>
      <point x="670" y="568" type="line" smooth="yes"/>
      <point x="686" y="566"/>
      <point x="701" y="578"/>
      <point x="704" y="594" type="curve" smooth="yes"/>
      <point x="706" y="610"/>
      <point x="694" y="625"/>
      <point x="678" y="628" type="curve" smooth="yes"/>
      <point x="85" y="714" type="line" smooth="yes"/>
      <point x="66" y="716"/>
      <point x="50" y="703"/>
      <point x="50" y="683" type="curve" smooth="yes"/>
      <point x="60" y="92" type="line" smooth="yes"/>
      <point x="60" y="73"/>
      <point x="76" y="60"/>
    </contour>
  </outline>
</glyph>
<glyph name="F" format="1">
  <advance width="759"/>
  <unicode hex="0046"/>
  <outline>
    <contour>
      <point x="110" y="-5" type="curve" smooth="yes"/>
      <point x="165" y="341" type="line"/>
      <point x="691" y="575" type="line" smooth="yes"/>
      <point x="706" y="581"/>
      <point x="713" y="599"/>
      <point x="706" y="614" type="curve" smooth="yes"/>
      <point x="700" y="629"/>
      <point x="682" y="636"/>
      <point x="667" y="629" type="curve" smooth="yes"/>
      <point x="125" y="390" type="line" smooth="yes"/>
      <point x="117" y="386"/>
      <point x="109" y="376"/>
      <point x="108" y="367" type="curve" smooth="yes"/>
      <point x="50" y="5" type="line" smooth="yes"/>
      <point x="48" y="-11"/>
      <point x="59" y="-27"/>
      <point x="75" y="-30" type="curve" smooth="yes"/>
      <point x="91" y="-32"/>
      <point x="107" y="-21"/>
    </contour>
  </outline>
</glyph>
<glyph name="H" format="1">
  <advance width="760"/>
  <unicode hex="0048"/>
  <outline>
    <contour>
      <point x="680" y="-34" type="curve" smooth="yes"/>
      <point x="696" y="-34"/>
      <point x="710" y="-20"/>
      <point x="710" y="-4" type="curve" smooth="yes"/>
      <point x="710" y="596" type="line" smooth="yes"/>
      <point x="710" y="619"/>
      <point x="689" y="633"/>
      <point x="668" y="623" type="curve" smooth="yes"/>
      <point x="158" y="397" type="line"/>
      <point x="110" y="800" type="line" smooth="yes"/>
      <point x="108" y="816"/>
      <point x="92" y="828"/>
      <point x="76" y="826" type="curve" smooth="yes"/>
      <point x="60" y="824"/>
      <point x="48" y="808"/>
      <point x="50" y="792" type="curve" smooth="yes"/>
      <point x="103" y="350" type="line" smooth="yes"/>
      <point x="106" y="329"/>
      <point x="126" y="317"/>
      <point x="145" y="326" type="curve" smooth="yes"/>
      <point x="650" y="550" type="line"/>
      <point x="650" y="-4" type="line" smooth="yes"/>
      <point x="650" y="-20"/>
      <point x="664" y="-34"/>
    </contour>
  </outline>
</glyph>
<glyph name="I" format="1">
  <advance width="760"/>
  <unicode hex="0049"/>
  <outline>
    <contour>
      <point x="106" y="-16" type="curve" smooth="yes"/>
      <point x="404" y="491" type="line"/>
      <point x="701" y="777" type="line" smooth="yes"/>
      <point x="712" y="789"/>
      <point x="713" y="808"/>
      <point x="702" y="820" type="curve" smooth="yes"/>
      <point x="690" y="831"/>
      <point x="671" y="832"/>
      <point x="659" y="821" type="curve" smooth="yes"/>
      <point x="359" y="531" type="line" smooth="yes"/>
      <point x="358" y="530"/>
      <point x="355" y="527"/>
      <point x="354" y="525" type="curve" smooth="yes"/>
      <point x="54" y="14" type="line" smooth="yes"/>
      <point x="46" y="0"/>
      <point x="51" y="-19"/>
      <point x="65" y="-27" type="curve" smooth="yes"/>
      <point x="79" y="-35"/>
      <point x="98" y="-30"/>
    </contour>
  </outline>
</glyph>
<glyph name="J" format="1">
  <advance width="760"/>
  <unicode hex="004A"/>
  <outline>
    <contour>
      <point x="101" y="-23" type="curve" smooth="yes"/>
      <point x="401" y="267" type="line" smooth="yes"/>
      <point x="402" y="268"/>
      <point x="405" y="271"/>
      <point x="406" y="273" type="curve" smooth="yes"/>
      <point x="706" y="784" type="line" smooth="yes"/>
      <point x="714" y="798"/>
      <point x="709" y="817"/>
      <point x="695" y="825" type="curve" smooth="yes"/>
      <point x="681" y="833"/>
      <point x="662" y="828"/>
      <point x="654" y="814" type="curve" smooth="yes"/>
      <point x="356" y="307" type="line"/>
      <point x="59" y="21" type="line" smooth="yes"/>
      <point x="48" y="9"/>
      <point x="47" y="-10"/>
      <point x="58" y="-22" type="curve" smooth="yes"/>
      <point x="70" y="-33"/>
      <point x="89" y="-34"/>
    </contour>
  </outline>
</glyph>
<glyph name="N" format="1">
  <advance width="760"/>
  <unicode hex="004E"/>
  <outline>
    <contour>
      <point x="110" y="-1" type="curve" smooth="yes"/>
      <point x="110" y="171" type="line"/>
      <point x="366" y="643" type="line"/>
      <point x="655" y="183" type="line" smooth="yes"/>
      <point x="672" y="156"/>
      <point x="710" y="167"/>
      <point x="710" y="199" type="curve" smooth="yes"/>
      <point x="710" y="799" type="line" smooth="yes"/>
      <point x="710" y="815"/>
      <point x="696" y="829"/>
      <point x="680" y="829" type="curve" smooth="yes"/>
      <point x="664" y="829"/>
      <point x="650" y="815"/>
      <point x="650" y="799" type="curve" smooth="yes"/>
      <point x="650" y="303" type="line"/>
      <point x="390" y="718" type="line" smooth="yes"/>
      <point x="376" y="739"/>
      <point x="350" y="738"/>
      <point x="338" y="716" type="curve" smooth="yes"/>
      <point x="54" y="193" type="line" smooth="yes"/>
      <point x="52" y="190"/>
      <point x="50" y="183"/>
      <point x="50" y="179" type="curve" smooth="yes"/>
      <point x="50" y="-1" type="line" smooth="yes"/>
      <point x="50" y="-17"/>
      <point x="64" y="-31"/>
      <point x="80" y="-31" type="curve" smooth="yes"/>
      <point x="96" y="-31"/>
      <point x="110" y="-17"/>
    </contour>
  </outline>
</glyph>
<glyph name="S" format="1">
  <advance width="761"/>
  <unicode hex="0053"/>
  <outline>
    <contour>
      <point x="90" y="176" type="curve" smooth="yes"/>
      <point x="606" y="359" type="line" smooth="yes"/>
      <point x="632" y="368"/>
      <point x="635" y="398"/>
      <point x="612" y="413" type="curve" smooth="yes"/>
      <point x="233" y="642" type="line"/>
      <point x="676" y="574" type="line" smooth="yes"/>
      <point x="692" y="572"/>
      <point x="708" y="583"/>
      <point x="711" y="599" type="curve" smooth="yes"/>
      <point x="713" y="615"/>
      <point x="702" y="631"/>
      <point x="686" y="634" type="curve" smooth="yes"/>
      <point x="93" y="725" type="line" smooth="yes"/>
      <point x="58" y="730"/>
      <point x="43" y="687"/>
      <point x="73" y="669" type="curve" smooth="yes"/>
      <point x="527" y="394" type="line"/>
      <point x="70" y="232" type="line" smooth="yes"/>
      <point x="55" y="227"/>
      <point x="46" y="209"/>
      <point x="52" y="194" type="curve" smooth="yes"/>
      <point x="57" y="179"/>
      <point x="75" y="170"/>
    </contour>
  </outline>
</glyph>
<glyph name="T" format="1">
  <advance width="460"/>
  <unicode hex="0054"/>
  <outline>
    <contour>
      <point x="380" y="-30" type="curve" smooth="yes"/>
      <point x="396" y="-30"/>
      <point x="410" y="-16"/>
      <point x="410" y="0" type="curve" smooth="yes"/>
      <point x="410" y="600" type="line" smooth="yes"/>
      <point x="410" y="609"/>
      <point x="404" y="620"/>
      <point x="397" y="625" type="curve" smooth="yes"/>
      <point x="97" y="825" type="line" smooth="yes"/>
      <point x="83" y="834"/>
      <point x="64" y="830"/>
      <point x="55" y="817" type="curve" smooth="yes"/>
      <point x="46" y="803"/>
      <point x="50" y="784"/>
      <point x="63" y="775" type="curve" smooth="yes"/>
      <point x="350" y="584" type="line"/>
      <point x="350" y="0" type="line" smooth="yes"/>
      <point x="350" y="-16"/>
      <point x="364" y="-30"/>
    </contour>
  </outline>
</glyph>
<glyph name="W" format="1">
  <advance width="760"/>
  <unicode hex="0057"/>
  <outline>
    <contour>
      <point x="670" y="-2" type="curve" smooth="yes"/>
      <point x="710" y="588" type="line"/>
      <point x="710" y="800" type="line" smooth="yes"/>
      <point x="710" y="816"/>
      <point x="696" y="830"/>
      <point x="680" y="830" type="curve" smooth="yes"/>
      <point x="664" y="830"/>
      <point x="650" y="816"/>
      <point x="650" y="800" type="curve" smooth="yes"/>
      <point x="650" y="592" type="line"/>
      <point x="613" y="42" type="line"/>
      <point x="110" y="221" type="line"/>
      <point x="110" y="800" type="line" smooth="yes"/>
      <point x="110" y="816"/>
      <point x="96" y="830"/>
      <point x="80" y="830" type="curve" smooth="yes"/>
      <point x="64" y="830"/>
      <point x="50" y="816"/>
      <point x="50" y="800" type="curve" smooth="yes"/>
      <point x="50" y="200" type="line"/>
      <point x="50" y="188"/>
      <point x="59" y="176"/>
      <point x="70" y="172" type="curve" smooth="yes"/>
      <point x="630" y="-28" type="line" smooth="yes"/>
      <point x="650" y="-35"/>
      <point x="669" y="-23"/>
    </contour>
  </outline>
</glyph>
<glyph name="Y" format="1">
  <advance width="482"/>
  <unicode hex="0059"/>
  <outline>
    <contour>
      <point x="100" y="-21" type="curve" smooth="yes"/>
      <point x="423" y="276" type="line" smooth="yes"/>
      <point x="433" y="285"/>
      <point x="435" y="303"/>
      <point x="428" y="314" type="curve" smooth="yes"/>
      <point x="105" y="814" type="line" smooth="yes"/>
      <point x="96" y="828"/>
      <point x="77" y="832"/>
      <point x="64" y="823" type="curve" smooth="yes"/>
      <point x="50" y="814"/>
      <point x="46" y="795"/>
      <point x="55" y="782" type="curve" smooth="yes"/>
      <point x="364" y="303" type="line"/>
      <point x="60" y="23" type="line" smooth="yes"/>
      <point x="48" y="12"/>
      <point x="47" y="-7"/>
      <point x="58" y="-19" type="curve" smooth="yes"/>
      <point x="69" y="-31"/>
      <point x="88" y="-32"/>
    </contour>
  </outline>
</glyph>
<glyph name="bracketleft" format="1">
  <advance width="459"/>
  <unicode hex="005B"/>
  <outline>
    <contour>
      <point x="401" y="-21" type="curve" smooth="yes"/>
      <point x="412" y="-9"/>
      <point x="411" y="10"/>
      <point x="400" y="22" type="curve" smooth="yes"/>
      <point x="117" y="295" type="line"/>
      <point x="405" y="785" type="line" smooth="yes"/>
      <point x="413" y="799"/>
      <point x="408" y="818"/>
      <point x="394" y="826" type="curve" smooth="yes"/>
      <point x="380" y="834"/>
      <point x="361" y="829"/>
      <point x="353" y="815" type="curve" smooth="yes"/>
      <point x="53" y="305" type="line" smooth="yes"/>
      <point x="47" y="294"/>
      <point x="49" y="277"/>
      <point x="58" y="268" type="curve" smooth="yes"/>
      <point x="358" y="-22" type="line" smooth="yes"/>
      <point x="370" y="-33"/>
      <point x="389" y="-32"/>
    </contour>
  </outline>
</glyph>
<glyph name="bracketright" format="1">
  <advance width="459"/>
  <unicode hex="005D"/>
  <outline>
    <contour>
      <point x="101" y="-23" type="curve" smooth="yes"/>
      <point x="401" y="267" type="line" smooth="yes"/>
      <point x="410" y="276"/>
      <point x="412" y="293"/>
      <point x="406" y="304" type="curve" smooth="yes"/>
      <point x="106" y="814" type="line" smooth="yes"/>
      <point x="98" y="828"/>
      <point x="79" y="833"/>
      <point x="65" y="825" type="curve" smooth="yes"/>
      <point x="51" y="817"/>
      <point x="46" y="798"/>
      <point x="54" y="784" type="curve" smooth="yes"/>
      <point x="342" y="294" type="line"/>
      <point x="59" y="21" type="line" smooth="yes"/>
      <point x="48" y="9"/>
      <point x="47" y="-10"/>
      <point x="58" y="-22" type="curve" smooth="yes"/>
      <point x="70" y="-33"/>
      <point x="89" y="-34"/>
    </contour>
  </outline>
</glyph>
<glyph name="asciicircum" format="1">
  <advance width="760"/>
  <unicode hex="005E"/>
  <outline>
    <contour>
      <point x="50" y="502" type="curve" smooth="yes"/>
      <point x="50" y="486"/>
      <point x="64" y="472"/>
      <point x="80" y="472" type="curve" smooth="yes"/>
      <point x="680" y="472" type="line" smooth="yes"/>
      <point x="696" y="472"/>
      <point x="710" y="486"/>
      <point x="710" y="502" type="curve" smooth="yes"/>
      <point x="710" y="518"/>
      <point x="696" y="532"/>
      <point x="680" y="532" type="curve" smooth="yes"/>
      <point x="80" y="532" type="line" smooth="yes"/>
      <point x="64" y="532"/>
      <point x="50" y="518"/>
    </contour>
  </outline>
</glyph>
<glyph name="underscore" format="1">
  <advance width="736"/>
  <unicode hex="005F"/>
  <outline>
    <contour>
      <point x="50" y="-185" type="curve" smooth="yes"/>
      <point x="50" y="-201"/>
      <point x="64" y="-215"/>
      <point x="80" y="-215" type="curve" smooth="yes"/>
      <point x="656" y="-215" type="line" smooth="yes"/>
      <point x="672" y="-215"/>
      <point x="686" y="-201"/>
      <point x="686" y="-185" type="curve" smooth="yes"/>
      <point x="686" y="-169"/>
      <point x="672" y="-155"/>
      <point x="656" y="-155" type="curve" smooth="yes"/>
      <point x="80" y="-155" type="line" smooth="yes"/>
      <point x="64" y="-155"/>
      <point x="50" y="-169"/>
    </contour>
  </outline>
</glyph>
<glyph name="grave" format="1">
  <advance width="460"/>
  <unicode hex="0060"/>
  <outline>
    <contour>
      <point x="405" y="911" type="curve" smooth="yes"/>
      <point x="414" y="925"/>
      <point x="410" y="944"/>
      <point x="397" y="953" type="curve" smooth="yes"/>
      <point x="97" y="1153" type="line" smooth="yes"/>
      <point x="83" y="1162"/>
      <point x="64" y="1158"/>
      <point x="55" y="1145" type="curve" smooth="yes"/>
      <point x="46" y="1131"/>
      <point x="50" y="1112"/>
      <point x="63" y="1103" type="curve" smooth="yes"/>
      <point x="363" y="903" type="line" smooth="yes"/>
      <point x="377" y="894"/>
      <point x="396" y="898"/>
    </contour>
  </outline>
</glyph>
<glyph name="d" format="1">
  <advance width="760"/>
  <unicode hex="0064"/>
  <outline>
    <contour>
      <point x="707" y="149" type="curve" smooth="yes"/>
      <point x="710" y="589" type="line" smooth="yes"/>
      <point x="710" y="591"/>
      <point x="710" y="592"/>
      <point x="710" y="594" type="curve"/>
      <point x="712" y="608"/>
      <point x="704" y="622"/>
      <point x="690" y="627" type="curve" smooth="yes"/>
      <point x="125" y="827" type="line" smooth="yes"/>
      <point x="105" y="834"/>
      <point x="86" y="822"/>
      <point x="85" y="801" type="curve" smooth="yes"/>
      <point x="50" y="211" type="line" smooth="yes"/>
      <point x="49" y="195"/>
      <point x="61" y="181"/>
      <point x="77" y="179" type="curve" smooth="yes"/>
      <point x="674" y="119" type="line" smooth="yes"/>
      <point x="692" y="117"/>
      <point x="707" y="131"/>
    </contour>
    <contour>
      <point x="647" y="182" type="line"/>
      <point x="112" y="236" type="line"/>
      <point x="143" y="757" type="line"/>
      <point x="650" y="578" type="line"/>
    </contour>
  </outline>
</glyph>
<glyph name="e" format="1">
  <advance width="709"/>
  <unicode hex="0065"/>
  <outline>
    <contour>
      <point x="452" y="-21" type="curve" smooth="yes"/>
      <point x="650" y="175" type="line" smooth="yes"/>
      <point x="662" y="186"/>
      <point x="662" y="206"/>
      <point x="650" y="217" type="curve" smooth="yes"/>
      <point x="639" y="229"/>
      <point x="619" y="229"/>
      <point x="608" y="217" type="curve" smooth="yes"/>
      <point x="430" y="42" type="line"/>
      <point x="133" y="347" type="line"/>
      <point x="640" y="575" type="line" smooth="yes"/>
      <point x="655" y="581"/>
      <point x="662" y="599"/>
      <point x="655" y="614" type="curve" smooth="yes"/>
      <point x="649" y="629"/>
      <point x="631" y="636"/>
      <point x="616" y="629" type="curve" smooth="yes"/>
      <point x="69" y="385" type="line" smooth="yes"/>
      <point x="49" y="375"/>
      <point x="44" y="352"/>
      <point x="60" y="336" type="curve" smooth="yes"/>
      <point x="408" y="-21" type="line" smooth="yes"/>
      <point x="414" y="-27"/>
      <point x="423" y="-30"/>
      <point x="431" y="-30" type="curve"/>
      <point x="439" y="-30"/>
      <point x="446" y="-27"/>
    </contour>
  </outline>
</glyph>
<glyph name="f" format="1">
  <advance width="759"/>
  <unicode hex="0066"/>
  <outline>
    <contour>
      <point x="110" y="-1" type="curve" smooth="yes"/>
      <point x="163" y="345" type="line"/>
      <point x="256" y="386" type="line"/>
      <point x="262" y="379"/>
      <point x="271" y="374"/>
      <point x="280" y="374" type="curve" smooth="yes"/>
      <point x="480" y="374" type="line" smooth="yes"/>
      <point x="496" y="374"/>
      <point x="510" y="388"/>
      <point x="510" y="404" type="curve" smooth="yes"/>
      <point x="510" y="420"/>
      <point x="496" y="434"/>
      <point x="480" y="434" type="curve" smooth="yes"/>
      <point x="365" y="434" type="line"/>
      <point x="691" y="579" type="line" smooth="yes"/>
      <point x="706" y="585"/>
      <point x="713" y="603"/>
      <point x="706" y="618" type="curve" smooth="yes"/>
      <point x="700" y="633"/>
      <point x="682" y="640"/>
      <point x="667" y="633" type="curve" smooth="yes"/>
      <point x="124" y="393" type="line" smooth="yes"/>
      <point x="116" y="389"/>
      <point x="108" y="379"/>
      <point x="106" y="370" type="curve" smooth="yes"/>
      <point x="50" y="9" type="line" smooth="yes"/>
      <point x="48" y="-7"/>
      <point x="59" y="-23"/>
      <point x="75" y="-26" type="curve" smooth="yes"/>
      <point x="91" y="-28"/>
      <point x="107" y="-17"/>
    </contour>
  </outline>
</glyph>
<glyph name="g" format="1">
  <advance width="755"/>
  <unicode hex="0067"/>
  <outline>
    <contour>
      <point x="252" y="624" type="curve" smooth="yes"/>
      <point x="241" y="612"/>
      <point x="242" y="593"/>
      <point x="254" y="582" type="curve" smooth="yes"/>
      <point x="613" y="250" type="line"/>
      <point x="122" y="127" type="line"/>
      <point x="111" y="652" type="line"/>
      <point x="262" y="631" type="line"/>
      <point x="258" y="630"/>
      <point x="255" y="627"/>
    </contour>
    <contour>
      <point x="100" y="60" type="curve" smooth="yes"/>
      <point x="681" y="205" type="line" smooth="yes"/>
      <point x="706" y="211"/>
      <point x="713" y="238"/>
      <point x="694" y="256" type="curve" smooth="yes"/>
      <point x="294" y="626" type="line" smooth="yes"/>
      <point x="293" y="627" type="line"/>
      <point x="670" y="574" type="line" smooth="yes"/>
      <point x="686" y="572"/>
      <point x="701" y="584"/>
      <point x="704" y="600" type="curve" smooth="yes"/>
      <point x="706" y="616"/>
      <point x="694" y="631"/>
      <point x="678" y="634" type="curve" smooth="yes"/>
      <point x="84" y="717" type="line" smooth="yes"/>
      <point x="65" y="719"/>
      <point x="50" y="706"/>
      <point x="50" y="686" type="curve" smooth="yes"/>
      <point x="63" y="88" type="line" smooth="yes"/>
      <point x="63" y="68"/>
      <point x="81" y="55"/>
    </contour>
  </outline>
</glyph>
<glyph name="k" format="1">
  <advance width="760"/>
  <unicode hex="006B"/>
  <outline>
    <contour>
      <point x="702" y="-16" type="curve" smooth="yes"/>
      <point x="713" y="-4"/>
      <point x="712" y="15"/>
      <point x="700" y="26" type="curve" smooth="yes"/>
      <point x="270" y="420" type="line"/>
      <point x="108" y="815" type="line" smooth="yes"/>
      <point x="102" y="830"/>
      <point x="84" y="838"/>
      <point x="69" y="832" type="curve" smooth="yes"/>
      <point x="54" y="826"/>
      <point x="46" y="808"/>
      <point x="52" y="793" type="curve" smooth="yes"/>
      <point x="217" y="391" type="line" smooth="yes"/>
      <point x="218" y="388"/>
      <point x="222" y="383"/>
      <point x="224" y="380" type="curve" smooth="yes"/>
      <point x="660" y="-18" type="line" smooth="yes"/>
      <point x="672" y="-29"/>
      <point x="691" y="-28"/>
    </contour>
    <contour>
      <point x="467" y="377" type="curve" smooth="yes"/>
      <point x="481" y="370"/>
      <point x="500" y="376"/>
      <point x="507" y="391" type="curve" smooth="yes"/>
      <point x="707" y="791" type="line" smooth="yes"/>
      <point x="714" y="805"/>
      <point x="708" y="824"/>
      <point x="693" y="831" type="curve" smooth="yes"/>
      <point x="679" y="838"/>
      <point x="660" y="832"/>
      <point x="653" y="817" type="curve" smooth="yes"/>
      <point x="453" y="417" type="line" smooth="yes"/>
      <point x="446" y="403"/>
      <point x="452" y="384"/>
    </contour>
  </outline>
</glyph>
<glyph name="l" format="1">
  <advance width="760"/>
  <unicode hex="006C"/>
  <outline>
    <contour>
      <point x="640" y="-30" type="curve" smooth="yes"/>
      <point x="680" y="-30" type="line" smooth="yes"/>
      <point x="696" y="-30"/>
      <point x="710" y="-16"/>
      <point x="710" y="0" type="curve" smooth="yes"/>
      <point x="710" y="16"/>
      <point x="696" y="30"/>
      <point x="680" y="30" type="curve" smooth="yes"/>
      <point x="645" y="30" type="line"/>
      <point x="110" y="221" type="line"/>
      <point x="110" y="800" type="line" smooth="yes"/>
      <point x="110" y="816"/>
      <point x="96" y="830"/>
      <point x="80" y="830" type="curve" smooth="yes"/>
      <point x="64" y="830"/>
      <point x="50" y="816"/>
      <point x="50" y="800" type="curve" smooth="yes"/>
      <point x="50" y="200" type="line"/>
      <point x="50" y="188"/>
      <point x="59" y="176"/>
      <point x="70" y="172" type="curve" smooth="yes"/>
      <point x="630" y="-28" type="line" smooth="yes"/>
      <point x="633" y="-29"/>
      <point x="637" y="-30"/>
    </contour>
  </outline>
</glyph>
<glyph name="m" format="1">
  <advance width="760"/>
  <unicode hex="006D"/>
  <outline>
    <contour>
      <point x="680" y="-31" type="curve" smooth="yes"/>
      <point x="696" y="-31"/>
      <point x="710" y="-17"/>
      <point x="710" y="-1" type="curve" smooth="yes"/>
      <point x="710" y="599" type="line" smooth="yes"/>
      <point x="710" y="611"/>
      <point x="701" y="623"/>
      <point x="690" y="627" type="curve" smooth="yes"/>
      <point x="130" y="827" type="line" smooth="yes"/>
      <point x="110" y="834"/>
      <point x="91" y="822"/>
      <point x="90" y="801" type="curve" smooth="yes"/>
      <point x="50" y="211" type="line"/>
      <point x="50" y="-1" type="line" smooth="yes"/>
      <point x="50" y="-17"/>
      <point x="64" y="-31"/>
      <point x="80" y="-31" type="curve" smooth="yes"/>
      <point x="96" y="-31"/>
      <point x="110" y="-17"/>
      <point x="110" y="-1" type="curve" smooth="yes"/>
      <point x="110" y="207" type="line"/>
      <point x="147" y="757" type="line"/>
      <point x="650" y="578" type="line"/>
      <point x="650" y="-1" type="line" smooth="yes"/>
      <point x="650" y="-17"/>
      <point x="664" y="-31"/>
    </contour>
  </outline>
</glyph>
<glyph name="o" format="1">
  <advance width="758"/>
  <unicode hex="006F"/>
  <outline>
    <contour>
      <point x="509" y="-11" type="curve" smooth="yes"/>
      <point x="706" y="549" type="line" smooth="yes"/>
      <point x="712" y="565"/>
      <point x="703" y="583"/>
      <point x="687" y="588" type="curve" smooth="yes"/>
      <point x="116" y="765" type="line" smooth="yes"/>
      <point x="96" y="771"/>
      <point x="78" y="758"/>
      <point x="77" y="738" type="curve" smooth="yes"/>
      <point x="50" y="141" type="line" smooth="yes"/>
      <point x="49" y="129"/>
      <point x="58" y="116"/>
      <point x="70" y="112" type="curve" smooth="yes"/>
      <point x="461" y="-29" type="line" smooth="yes"/>
      <point x="466" y="-31"/>
      <point x="471" y="-31"/>
      <point x="476" y="-30" type="curve"/>
      <point x="490" y="-33"/>
      <point x="504" y="-25"/>
    </contour>
    <contour>
      <point x="462" y="34" type="line"/>
      <point x="111" y="161" type="line"/>
      <point x="135" y="696" type="line"/>
      <point x="639" y="540" type="line"/>
    </contour>
  </outline>
</glyph>
<glyph name="p" format="1">
  <advance width="704"/>
  <unicode hex="0070"/>
  <outline>
    <contour>
      <point x="80" y="-27" type="curve" smooth="yes"/>
      <point x="96" y="-27"/>
      <point x="110" y="-13"/>
      <point x="110" y="3" type="curve" smooth="yes"/>
      <point x="110" y="80" type="line"/>
      <point x="635" y="316" type="line" smooth="yes"/>
      <point x="655" y="324"/>
      <point x="660" y="346"/>
      <point x="646" y="362" type="curve" smooth="yes"/>
      <point x="266" y="821" type="line" smooth="yes"/>
      <point x="250" y="841"/>
      <point x="222" y="835"/>
      <point x="215" y="810" type="curve" smooth="yes"/>
      <point x="51" y="241" type="line" smooth="yes"/>
      <point x="51" y="239"/>
      <point x="50" y="235"/>
      <point x="50" y="233" type="curve" smooth="yes"/>
      <point x="50" y="3" type="line" smooth="yes"/>
      <point x="50" y="-13"/>
      <point x="64" y="-27"/>
    </contour>
    <contour>
      <point x="110" y="145" type="line"/>
      <point x="110" y="229" type="line"/>
      <point x="256" y="739" type="line"/>
      <point x="575" y="354" type="line"/>
    </contour>
  </outline>
</glyph>
<glyph name="q" format="1">
  <advance width="758"/>
  <unicode hex="0071"/>
  <outline>
    <contour>
      <point x="506" y="-11" type="curve" smooth="yes"/>
      <point x="706" y="549" type="line" smooth="yes"/>
      <point x="712" y="565"/>
      <point x="703" y="583"/>
      <point x="687" y="588" type="curve" smooth="yes"/>
      <point x="116" y="765" type="line" smooth="yes"/>
      <point x="96" y="771"/>
      <point x="78" y="758"/>
      <point x="77" y="738" type="curve" smooth="yes"/>
      <point x="50" y="150" type="line" smooth="yes"/>
      <point x="50" y="138"/>
      <point x="58" y="125"/>
      <point x="69" y="121" type="curve" smooth="yes"/>
      <point x="457" y="-29" type="line" smooth="yes"/>
      <point x="462" y="-31"/>
      <point x="467" y="-31"/>
      <point x="473" y="-30" type="curve"/>
      <point x="487" y="-33"/>
      <point x="501" y="-25"/>
    </contour>
    <contour>
      <point x="459" y="35" type="line"/>
      <point x="111" y="169" type="line"/>
      <point x="135" y="696" type="line"/>
      <point x="639" y="540" type="line"/>
    </contour>
  </outline>
</glyph>
<glyph name="r" format="1">
  <advance width="761"/>
  <unicode hex="0072"/>
  <outline>
    <contour>
      <point x="707" y="-19" type="curve" smooth="yes"/>
      <point x="715" y="-5"/>
      <point x="710" y="14"/>
      <point x="696" y="22" type="curve" smooth="yes"/>
      <point x="398" y="197" type="line"/>
      <point x="499" y="272" type="line" smooth="yes"/>
      <point x="512" y="282"/>
      <point x="515" y="301"/>
      <point x="505" y="314" type="curve" smooth="yes"/>
      <point x="495" y="327"/>
      <point x="476" y="330"/>
      <point x="463" y="320" type="curve" smooth="yes"/>
      <point x="342" y="230" type="line"/>
      <point x="280" y="266" type="line"/>
      <point x="296" y="266"/>
      <point x="310" y="280"/>
      <point x="310" y="296" type="curve" smooth="yes"/>
      <point x="310" y="312"/>
      <point x="296" y="326"/>
      <point x="280" y="326" type="curve" smooth="yes"/>
      <point x="170" y="326" type="line" smooth="yes"/>
      <point x="137" y="326"/>
      <point x="126" y="287"/>
      <point x="155" y="270" type="curve" smooth="yes"/>
      <point x="290" y="191" type="line"/>
      <point x="62" y="20" type="line" smooth="yes"/>
      <point x="49" y="10"/>
      <point x="46" y="-9"/>
      <point x="56" y="-22" type="curve" smooth="yes"/>
      <point x="66" y="-35"/>
      <point x="85" y="-38"/>
      <point x="98" y="-28" type="curve" smooth="yes"/>
      <point x="346" y="158" type="line"/>
      <point x="666" y="-30" type="line" smooth="yes"/>
      <point x="680" y="-38"/>
      <point x="699" y="-33"/>
    </contour>
  </outline>
</glyph>
<glyph name="u" format="1">
  <advance width="759"/>
  <unicode hex="0075"/>
  <outline>
    <contour>
      <point x="709" y="199" type="curve" smooth="yes"/>
      <point x="709" y="799" type="line" smooth="yes"/>
      <point x="709" y="815"/>
      <point x="695" y="829"/>
      <point x="679" y="829" type="curve" smooth="yes"/>
      <point x="663" y="829"/>
      <point x="649" y="815"/>
      <point x="649" y="799" type="curve" smooth="yes"/>
      <point x="649" y="231" type="line"/>
      <point x="110" y="258" type="line"/>
      <point x="110" y="799" type="line" smooth="yes"/>
      <point x="110" y="815"/>
      <point x="96" y="829"/>
      <point x="80" y="829" type="curve" smooth="yes"/>
      <point x="64" y="829"/>
      <point x="50" y="815"/>
      <point x="50" y="799" type="curve" smooth="yes"/>
      <point x="50" y="229" type="line" smooth="yes"/>
      <point x="50" y="213"/>
      <point x="63" y="200"/>
      <point x="78" y="199" type="curve" smooth="yes"/>
      <point x="677" y="169" type="line" smooth="yes"/>
      <point x="695" y="168"/>
      <point x="709" y="182"/>
    </contour>
  </outline>
</glyph>
<glyph name="v" format="1">
  <advance width="760"/>
  <unicode hex="0076"/>
  <outline>
    <contour>
      <point x="705" y="125" type="curve" smooth="yes"/>
      <point x="710" y="720" type="line"/>
      <point x="710" y="800" type="line" smooth="yes"/>
      <point x="710" y="816"/>
      <point x="696" y="830"/>
      <point x="680" y="830" type="curve" smooth="yes"/>
      <point x="664" y="830"/>
      <point x="650" y="816"/>
      <point x="650" y="800" type="curve" smooth="yes"/>
      <point x="650" y="720" type="line"/>
      <point x="645" y="159" type="line"/>
      <point x="110" y="226" type="line"/>
      <point x="110" y="800" type="line" smooth="yes"/>
      <point x="110" y="816"/>
      <point x="96" y="830"/>
      <point x="80" y="830" type="curve" smooth="yes"/>
      <point x="64" y="830"/>
      <point x="50" y="816"/>
      <point x="50" y="800" type="curve" smooth="yes"/>
      <point x="50" y="200" type="line"/>
      <point x="50" y="185"/>
      <point x="62" y="172"/>
      <point x="76" y="170" type="curve" smooth="yes"/>
      <point x="671" y="95" type="line" smooth="yes"/>
      <point x="689" y="93"/>
      <point x="705" y="106"/>
    </contour>
  </outline>
</glyph>
<glyph name="x" format="1">
  <advance width="760"/>
  <unicode hex="0078"/>
  <outline>
    <contour>
      <point x="108" y="-11" type="curve" smooth="yes"/>
      <point x="257" y="352" type="line"/>
      <point x="660" y="-22" type="line" smooth="yes"/>
      <point x="671" y="-33"/>
      <point x="691" y="-32"/>
      <point x="702" y="-20" type="curve" smooth="yes"/>
      <point x="713" y="-9"/>
      <point x="712" y="11"/>
      <point x="700" y="22" type="curve" smooth="yes"/>
      <point x="291" y="402" type="line"/>
      <point x="700" y="778" type="line" smooth="yes"/>
      <point x="712" y="789"/>
      <point x="713" y="808"/>
      <point x="702" y="820" type="curve" smooth="yes"/>
      <point x="691" y="832"/>
      <point x="672" y="833"/>
      <point x="660" y="822" type="curve" smooth="yes"/>
      <point x="258" y="453" type="line"/>
      <point x="108" y="812" type="line" smooth="yes"/>
      <point x="101" y="827"/>
      <point x="83" y="834"/>
      <point x="68" y="828" type="curve" smooth="yes"/>
      <point x="53" y="821"/>
      <point x="46" y="803"/>
      <point x="52" y="788" type="curve" smooth="yes"/>
      <point x="213" y="405" type="line"/>
      <point x="52" y="11" type="line" smooth="yes"/>
      <point x="46" y="-4"/>
      <point x="54" y="-22"/>
      <point x="69" y="-28" type="curve" smooth="yes"/>
      <point x="84" y="-34"/>
      <point x="102" y="-26"/>
    </contour>
  </outline>
</glyph>
<glyph name="z" format="1">
  <advance width="760"/>
  <unicode hex="007A"/>
  <outline>
    <contour>
      <point x="705" y="-17" type="curve" smooth="yes"/>
      <point x="714" y="-3"/>
      <point x="710" y="16"/>
      <point x="697" y="25" type="curve" smooth="yes"/>
      <point x="279" y="304" type="line"/>
      <point x="689" y="677" type="line" smooth="yes"/>
      <point x="709" y="696"/>
      <point x="700" y="724"/>
      <point x="673" y="729" type="curve" smooth="yes"/>
      <point x="85" y="830" type="line" smooth="yes"/>
      <point x="69" y="832"/>
      <point x="53" y="821"/>
      <point x="50" y="805" type="curve" smooth="yes"/>
      <point x="48" y="789"/>
      <point x="59" y="773"/>
      <point x="75" y="770" type="curve" smooth="yes"/>
      <point x="603" y="680" type="line"/>
      <point x="210" y="322" type="line" smooth="yes"/>
      <point x="195" y="308"/>
      <point x="196" y="286"/>
      <point x="213" y="275" type="curve" smooth="yes"/>
      <point x="663" y="-25" type="line" smooth="yes"/>
      <point x="677" y="-34"/>
      <point x="696" y="-30"/>
    </contour>
  </outline>
</glyph>
<glyph name="braceleft" format="1">
  <advance width="610"/>
  <unicode hex="007B"/>
  <outline>
    <contour>
      <point x="520" y="-32" type="curve" smooth="yes"/>
      <point x="530" y="-32" type="line" smooth="yes"/>
      <point x="546" y="-32"/>
      <point x="560" y="-18"/>
      <point x="560" y="-2" type="curve" smooth="yes"/>
      <point x="560" y="14"/>
      <point x="547" y="27"/>
      <point x="532" y="28" type="curve"/>
      <point x="125" y="401" type="line"/>
      <point x="550" y="776" type="line" smooth="yes"/>
      <point x="562" y="786"/>
      <point x="563" y="806"/>
      <point x="552" y="818" type="curve" smooth="yes"/>
      <point x="542" y="830"/>
      <point x="522" y="831"/>
      <point x="510" y="820" type="curve" smooth="yes"/>
      <point x="60" y="424" type="line" smooth="yes"/>
      <point x="47" y="411"/>
      <point x="46" y="391"/>
      <point x="60" y="379" type="curve" smooth="yes"/>
      <point x="500" y="-24" type="line" smooth="yes"/>
      <point x="504" y="-28"/>
      <point x="514" y="-32"/>
    </contour>
  </outline>
</glyph>
<glyph name="braceright" format="1">
  <advance width="610"/>
  <unicode hex="007D"/>
  <outline>
    <contour>
      <point x="80" y="-31" type="curve" smooth="yes"/>
      <point x="90" y="-31" type="line" smooth="yes"/>
      <point x="96" y="-31"/>
      <point x="106" y="-27"/>
      <point x="110" y="-23" type="curve" smooth="yes"/>
      <point x="550" y="380" type="line" smooth="yes"/>
      <point x="564" y="392"/>
      <point x="563" y="412"/>
      <point x="550" y="425" type="curve" smooth="yes"/>
      <point x="100" y="821" type="line" smooth="yes"/>
      <point x="88" y="832"/>
      <point x="68" y="831"/>
      <point x="58" y="819" type="curve" smooth="yes"/>
      <point x="47" y="807"/>
      <point x="48" y="787"/>
      <point x="60" y="777" type="curve" smooth="yes"/>
      <point x="485" y="402" type="line"/>
      <point x="78" y="29" type="line"/>
      <point x="64" y="29"/>
      <point x="50" y="15"/>
      <point x="50" y="-1" type="curve" smooth="yes"/>
      <point x="50" y="-17"/>
      <point x="64" y="-31"/>
    </contour>
  </outline>
</glyph>
<glyph name="asciitilde" format="1">
  <advance width="760"/>
  <unicode hex="007E"/>
  <outline>
    <contour>
      <point x="85" y="73" type="curve" smooth="yes"/>
      <point x="673" y="174" type="line" smooth="yes"/>
      <point x="686" y="176"/>
      <point x="697" y="187"/>
      <point x="698" y="200" type="curve" smooth="yes"/>
      <point x="710" y="300" type="line" smooth="yes"/>
      <point x="712" y="316"/>
      <point x="700" y="331"/>
      <point x="683" y="333" type="curve" smooth="yes"/>
      <point x="667" y="335"/>
      <point x="652" y="323"/>
      <point x="650" y="306" type="curve" smooth="yes"/>
      <point x="641" y="229" type="line"/>
      <point x="75" y="133" type="line" smooth="yes"/>
      <point x="59" y="130"/>
      <point x="48" y="114"/>
      <point x="50" y="98" type="curve" smooth="yes"/>
      <point x="53" y="82"/>
      <point x="69" y="71"/>
    </contour>
  </outline>
</glyph>
<glyph name="cent" format="1">
  <advance width="260"/>
  <unicode hex="00A2"/>
  <outline>
    <contour>
      <point x="80" y="370" type="curve" smooth="yes"/>
      <point x="96" y="370"/>
      <point x="110" y="384"/>
      <point x="110" y="400" type="curve" smooth="yes"/>
      <point x="110" y="500" type="line" smooth="yes"/>
      <point x="110" y="516"/>
      <point x="96" y="530"/>
      <point x="80" y="530" type="curve" smooth="yes"/>
      <point x="64" y="530"/>
      <point x="50" y="516"/>
      <point x="50" y="500" type="curve" smooth="yes"/>
      <point x="50" y="400" type="line" smooth="yes"/>
      <point x="50" y="384"/>
      <point x="64" y="370"/>
    </contour>
    <contour>
      <point x="180" y="430" type="curve" smooth="yes"/>
      <point x="164" y="430"/>
      <point x="150" y="416"/>
      <point x="150" y="400" type="curve" smooth="yes"/>
      <point x="150" y="0" type="line" smooth="yes"/>
      <point x="150" y="-16"/>
      <point x="164" y="-30"/>
      <point x="180" y="-30" type="curve" smooth="yes"/>
      <point x="196" y="-30"/>
      <point x="210" y="-16"/>
      <point x="210" y="0" type="curve" smooth="yes"/>
      <point x="210" y="400" type="line" smooth="yes"/>
      <point x="210" y="416"/>
      <point x="196" y="430"/>
    </contour>
    <contour>
      <point x="80" y="30" type="curve" smooth="yes"/>
      <point x="64" y="30"/>
      <point x="50" y="16"/>
      <point x="50" y="0" type="curve" smooth="yes"/>
      <point x="50" y="-100" type="line" smooth="yes"/>
      <point x="50" y="-116"/>
      <point x="64" y="-130"/>
      <point x="80" y="-130" type="curve" smooth="yes"/>
      <point x="96" y="-130"/>
      <point x="110" y="-116"/>
      <point x="110" y="-100" type="curve" smooth="yes"/>
      <point x="110" y="0" type="line" smooth="yes"/>
      <point x="110" y="16"/>
      <point x="96" y="30"/>
    </contour>
  </outline>
</glyph>
<glyph name="sterling" format="1">
  <advance width="510"/>
  <unicode hex="00A3"/>
  <outline>
    <contour>
      <point x="440" y="-27" type="curve" smooth="yes"/>
      <point x="455" y="-22"/>
      <point x="464" y="-4"/>
      <point x="458" y="11" type="curve" smooth="yes"/>
      <point x="330" y="371" type="line"/>
      <point x="380" y="371" type="line" smooth="yes"/>
      <point x="396" y="371"/>
      <point x="410" y="385"/>
      <point x="410" y="401" type="curve" smooth="yes"/>
      <point x="410" y="417"/>
      <point x="396" y="431"/>
      <point x="380" y="431" type="curve" smooth="yes"/>
      <point x="308" y="431" type="line"/>
      <point x="264" y="555" type="line"/>
      <point x="453" y="782" type="line" smooth="yes"/>
      <point x="463" y="794"/>
      <point x="462" y="814"/>
      <point x="449" y="824" type="curve" smooth="yes"/>
      <point x="437" y="834"/>
      <point x="417" y="833"/>
      <point x="407" y="820" type="curve" smooth="yes"/>
      <point x="207" y="581" type="line" smooth="yes"/>
      <point x="201" y="573"/>
      <point x="199" y="560"/>
      <point x="202" y="551" type="curve" smooth="yes"/>
      <point x="245" y="431" type="line"/>
      <point x="80" y="431" type="line" smooth="yes"/>
      <point x="64" y="431"/>
      <point x="50" y="417"/>
      <point x="50" y="401" type="curve" smooth="yes"/>
      <point x="50" y="385"/>
      <point x="64" y="371"/>
      <point x="80" y="371" type="curve" smooth="yes"/>
      <point x="266" y="371" type="line"/>
      <point x="402" y="-9" type="line" smooth="yes"/>
      <point x="407" y="-24"/>
      <point x="425" y="-33"/>
    </contour>
  </outline>
</glyph>
<glyph name="section" format="1">
  <advance width="760"/>
  <unicode hex="00A7"/>
  <outline>
    <contour>
      <point x="81" y="173" type="curve" smooth="yes"/>
      <point x="633" y="189" type="line" smooth="yes"/>
      <point x="664" y="190"/>
      <point x="675" y="224"/>
      <point x="650" y="243" type="curve" smooth="yes"/>
      <point x="228" y="560" type="line"/>
      <point x="681" y="573" type="line" smooth="yes"/>
      <point x="697" y="573"/>
      <point x="710" y="588"/>
      <point x="710" y="604" type="curve" smooth="yes"/>
      <point x="710" y="620"/>
      <point x="695" y="633"/>
      <point x="679" y="633" type="curve" smooth="yes"/>
      <point x="127" y="617" type="line" smooth="yes"/>
      <point x="96" y="616"/>
      <point x="85" y="582"/>
      <point x="110" y="563" type="curve" smooth="yes"/>
      <point x="532" y="246" type="line"/>
      <point x="79" y="233" type="line" smooth="yes"/>
      <point x="63" y="233"/>
      <point x="50" y="218"/>
      <point x="50" y="202" type="curve" smooth="yes"/>
      <point x="50" y="186"/>
      <point x="65" y="173"/>
    </contour>
  </outline>
</glyph>
<glyph name="degree" format="1">
  <advance width="160"/>
  <unicode hex="00B0"/>
  <outline>
    <contour>
      <point x="80" y="483" type="curve" smooth="yes"/>
      <point x="96" y="483"/>
      <point x="110" y="497"/>
      <point x="110" y="513" type="curve" smooth="yes"/>
      <point x="110" y="523" type="line" smooth="yes"/>
      <point x="110" y="539"/>
      <point x="96" y="553"/>
      <point x="80" y="553" type="curve" smooth="yes"/>
      <point x="64" y="553"/>
      <point x="50" y="539"/>
      <point x="50" y="523" type="curve" smooth="yes"/>
      <point x="50" y="513" type="line" smooth="yes"/>
      <point x="50" y="497"/>
      <point x="64" y="483"/>
    </contour>
  </outline>
</glyph>
<glyph name="plusminus" format="1">
  <advance width="560"/>
  <unicode hex="00B1"/>
  <outline>
    <contour>
      <point x="280" y="167" type="curve" smooth="yes"/>
      <point x="296" y="167"/>
      <point x="310" y="181"/>
      <point x="310" y="197" type="curve" smooth="yes"/>
      <point x="310" y="367" type="line"/>
      <point x="480" y="367" type="line" smooth="yes"/>
      <point x="496" y="367"/>
      <point x="510" y="381"/>
      <point x="510" y="397" type="curve" smooth="yes"/>
      <point x="510" y="413"/>
      <point x="496" y="427"/>
      <point x="480" y="427" type="curve" smooth="yes"/>
      <point x="310" y="427" type="line"/>
      <point x="310" y="597" type="line" smooth="yes"/>
      <point x="310" y="613"/>
      <point x="296" y="627"/>
      <point x="280" y="627" type="curve" smooth="yes"/>
      <point x="264" y="627"/>
      <point x="250" y="613"/>
      <point x="250" y="597" type="curve" smooth="yes"/>
      <point x="250" y="427" type="line"/>
      <point x="80" y="427" type="line" smooth="yes"/>
      <point x="64" y="427"/>
      <point x="50" y="413"/>
      <point x="50" y="397" type="curve" smooth="yes"/>
      <point x="50" y="381"/>
      <point x="64" y="367"/>
      <point x="80" y="367" type="curve" smooth="yes"/>
      <point x="250" y="367" type="line"/>
      <point x="250" y="197" type="line" smooth="yes"/>
      <point x="250" y="181"/>
      <point x="264" y="167"/>
    </contour>
    <contour>
      <point x="50" y="-3" type="curve" smooth="yes"/>
      <point x="50" y="-19"/>
      <point x="64" y="-33"/>
      <point x="80" y="-33" type="curve" smooth="yes"/>
      <point x="480" y="-33" type="line" smooth="yes"/>
      <point x="496" y="-33"/>
      <point x="510" y="-19"/>
      <point x="510" y="-3" type="curve" smooth="yes"/>
      <point x="510" y="13"/>
      <point x="496" y="27"/>
      <point x="480" y="27" type="curve" smooth="yes"/>
      <point x="80" y="27" type="line" smooth="yes"/>
      <point x="64" y="27"/>
      <point x="50" y="13"/>
    </contour>
  </outline>
</glyph>
<glyph name="guillemotright" format="1">
  <advance width="360"/>
  <unicode hex="00BB"/>
  <outline>
    <contour>
      <point x="80" y="431" type="curve" smooth="yes"/>
      <point x="64" y="431"/>
      <point x="50" y="417"/>
      <point x="50" y="401" type="curve" smooth="yes"/>
      <point x="50" y="1" type="line" smooth="yes"/>
      <point x="50" y="-15"/>
      <point x="64" y="-29"/>
      <point x="80" y="-29" type="curve" smooth="yes"/>
      <point x="96" y="-29"/>
      <point x="110" y="-15"/>
      <point x="110" y="1" type="curve" smooth="yes"/>
      <point x="110" y="401" type="line" smooth="yes"/>
      <point x="110" y="417"/>
      <point x="96" y="431"/>
    </contour>
    <contour>
      <point x="280" y="431" type="curve" smooth="yes"/>
      <point x="264" y="431"/>
      <point x="250" y="417"/>
      <point x="250" y="401" type="curve" smooth="yes"/>
      <point x="250" y="1" type="line" smooth="yes"/>
      <point x="250" y="-15"/>
      <point x="264" y="-29"/>
      <point x="280" y="-29" type="curve" smooth="yes"/>
      <point x="296" y="-29"/>
      <point x="310" y="-15"/>
      <point x="310" y="1" type="curve" smooth="yes"/>
      <point x="310" y="401" type="line" smooth="yes"/>
      <point x="310" y="417"/>
      <point x="296" y="431"/>
    </contour>
  </outline>
</glyph>
<glyph name="Agrave" format="1">
  <advance width="760"/>
  <unicode hex="00C0"/>
  <outline>
    <contour>
      <point x="405" y="911" type="curve" smooth="yes"/>
      <point x="414" y="925"/>
      <point x="410" y="944"/>
      <point x="397" y="953" type="curve" smooth="yes"/>
      <point x="97" y="1153" type="line" smooth="yes"/>
      <point x="83" y="1162"/>
      <point x="64" y="1158"/>
      <point x="55" y="1145" type="curve" smooth="yes"/>
      <point x="46" y="1131"/>
      <point x="50" y="1112"/>
      <point x="63" y="1103" type="curve" smooth="yes"/>
      <point x="363" y="903" type="line" smooth="yes"/>
      <point x="377" y="894"/>
      <point x="396" y="898"/>
    </contour>
    <contour>
      <point x="680" y="-34" type="curve" smooth="yes"/>
      <point x="696" y="-34"/>
      <point x="710" y="-20"/>
      <point x="710" y="-4" type="curve" smooth="yes"/>
      <point x="710" y="360" type="line" smooth="yes"/>
      <point x="710" y="367"/>
      <point x="706" y="376"/>
      <point x="702" y="381" type="curve" smooth="yes"/>
      <point x="300" y="816" type="line" smooth="yes"/>
      <point x="283" y="835"/>
      <point x="257" y="829"/>
      <point x="249" y="805" type="curve" smooth="yes"/>
      <point x="64" y="235" type="line" smooth="yes"/>
      <point x="56" y="212"/>
      <point x="74" y="192"/>
      <point x="98" y="197" type="curve" smooth="yes"/>
      <point x="650" y="309" type="line"/>
      <point x="650" y="-4" type="line" smooth="yes"/>
      <point x="650" y="-20"/>
      <point x="664" y="-34"/>
    </contour>
    <contour>
      <point x="137" y="266" type="line"/>
      <point x="291" y="738" type="line"/>
      <point x="633" y="367" type="line"/>
    </contour>
  </outline>
</glyph>
<glyph name="Acircumflex" format="1">
  <advance width="760"/>
  <unicode hex="00C2"/>
  <outline>
    <contour>
      <point x="50" y="928" type="curve" smooth="yes"/>
      <point x="50" y="912"/>
      <point x="64" y="898"/>
      <point x="80" y="898" type="curve" smooth="yes"/>
      <point x="680" y="898" type="line" smooth="yes"/>
      <point x="696" y="898"/>
      <point x="710" y="912"/>
      <point x="710" y="928" type="curve" smooth="yes"/>
      <point x="710" y="944"/>
      <point x="696" y="958"/>
      <point x="680" y="958" type="curve" smooth="yes"/>
      <point x="80" y="958" type="line" smooth="yes"/>
      <point x="64" y="958"/>
      <point x="50" y="944"/>
    </contour>
    <contour>
      <point x="680" y="-34" type="curve" smooth="yes"/>
      <point x="696" y="-34"/>
      <point x="710" y="-20"/>
      <point x="710" y="-4" type="curve" smooth="yes"/>
      <point x="710" y="360" type="line" smooth="yes"/>
      <point x="710" y="367"/>
      <point x="706" y="376"/>
      <point x="702" y="381" type="curve" smooth="yes"/>
      <point x="300" y="816" type="line" smooth="yes"/>
      <point x="283" y="835"/>
      <point x="257" y="829"/>
      <point x="249" y="805" type="curve" smooth="yes"/>
      <point x="64" y="235" type="line" smooth="yes"/>
      <point x="56" y="212"/>
      <point x="74" y="192"/>
      <point x="98" y="197" type="curve" smooth="yes"/>
      <point x="650" y="309" type="line"/>
      <point x="650" y="-4" type="line" smooth="yes"/>
      <point x="650" y="-20"/>
      <point x="664" y="-34"/>
    </contour>
    <contour>
      <point x="137" y="266" type="line"/>
      <point x="291" y="738" type="line"/>
      <point x="633" y="367" type="line"/>
    </contour>
  </outline>
</glyph>
<glyph name="Egrave" format="1">
  <advance width="765"/>
  <unicode hex="00C8"/>
  <outline>
    <contour>
      <point x="405" y="911" type="curve" smooth="yes"/>
      <point x="414" y="925"/>
      <point x="410" y="944"/>
      <point x="397" y="953" type="curve" smooth="yes"/>
      <point x="97" y="1153" type="line" smooth="yes"/>
      <point x="83" y="1162"/>
      <point x="64" y="1158"/>
      <point x="55" y="1145" type="curve" smooth="yes"/>
      <point x="46" y="1131"/>
      <point x="50" y="1112"/>
      <point x="63" y="1103" type="curve" smooth="yes"/>
      <point x="363" y="903" type="line" smooth="yes"/>
      <point x="377" y="894"/>
      <point x="396" y="898"/>
    </contour>
    <contour>
      <point x="508" y="-21" type="curve" smooth="yes"/>
      <point x="706" y="175" type="line" smooth="yes"/>
      <point x="718" y="186"/>
      <point x="718" y="206"/>
      <point x="706" y="217" type="curve" smooth="yes"/>
      <point x="695" y="229"/>
      <point x="675" y="229"/>
      <point x="664" y="217" type="curve" smooth="yes"/>
      <point x="486" y="42" type="line"/>
      <point x="189" y="347" type="line"/>
      <point x="696" y="575" type="line" smooth="yes"/>
      <point x="711" y="581"/>
      <point x="718" y="599"/>
      <point x="711" y="614" type="curve" smooth="yes"/>
      <point x="705" y="629"/>
      <point x="687" y="636"/>
      <point x="672" y="629" type="curve" smooth="yes"/>
      <point x="125" y="385" type="line" smooth="yes"/>
      <point x="105" y="375"/>
      <point x="100" y="352"/>
      <point x="116" y="336" type="curve" smooth="yes"/>
      <point x="464" y="-21" type="line" smooth="yes"/>
      <point x="470" y="-27"/>
      <point x="479" y="-30"/>
      <point x="487" y="-30" type="curve"/>
      <point x="495" y="-30"/>
      <point x="502" y="-27"/>
    </contour>
  </outline>
</glyph>
<glyph name="Ecircumflex" format="1">
  <advance width="765"/>
  <unicode hex="00CA"/>
  <outline>
    <contour>
      <point x="50" y="928" type="curve" smooth="yes"/>
      <point x="50" y="912"/>
      <point x="64" y="898"/>
      <point x="80" y="898" type="curve" smooth="yes"/>
      <point x="680" y="898" type="line" smooth="yes"/>
      <point x="696" y="898"/>
      <point x="710" y="912"/>
      <point x="710" y="928" type="curve" smooth="yes"/>
      <point x="710" y="944"/>
      <point x="696" y="958"/>
      <point x="680" y="958" type="curve" smooth="yes"/>
      <point x="80" y="958" type="line" smooth="yes"/>
      <point x="64" y="958"/>
      <point x="50" y="944"/>
    </contour>
    <contour>
      <point x="508" y="-21" type="curve" smooth="yes"/>
      <point x="706" y="175" type="line" smooth="yes"/>
      <point x="718" y="186"/>
      <point x="718" y="206"/>
      <point x="706" y="217" type="curve" smooth="yes"/>
      <point x="695" y="229"/>
      <point x="675" y="229"/>
      <point x="664" y="217" type="curve" smooth="yes"/>
      <point x="486" y="42" type="line"/>
      <point x="189" y="347" type="line"/>
      <point x="696" y="575" type="line" smooth="yes"/>
      <point x="711" y="581"/>
      <point x="718" y="599"/>
      <point x="711" y="614" type="curve" smooth="yes"/>
      <point x="705" y="629"/>
      <point x="687" y="636"/>
      <point x="672" y="629" type="curve" smooth="yes"/>
      <point x="125" y="385" type="line" smooth="yes"/>
      <point x="105" y="375"/>
      <point x="100" y="352"/>
      <point x="116" y="336" type="curve" smooth="yes"/>
      <point x="464" y="-21" type="line" smooth="yes"/>
      <point x="470" y="-27"/>
      <point x="479" y="-30"/>
      <point x="487" y="-30" type="curve"/>
      <point x="495" y="-30"/>
      <point x="502" y="-27"/>
    </contour>
  </outline>
</glyph>
<glyph name="Ntilde" format="1">
  <advance width="764"/>
  <unicode hex="00D1"/>
  <outline>
    <contour>
      <point x="89" y="898" type="curve" smooth="yes"/>
      <point x="677" y="999" type="line" smooth="yes"/>
      <point x="690" y="1001"/>
      <point x="701" y="1012"/>
      <point x="702" y="1025" type="curve" smooth="yes"/>
      <point x="714" y="1125" type="line" smooth="yes"/>
      <point x="716" y="1141"/>
      <point x="704" y="1156"/>
      <point x="687" y="1158" type="curve" smooth="yes"/>
      <point x="671" y="1160"/>
      <point x="656" y="1148"/>
      <point x="654" y="1131" type="curve" smooth="yes"/>
      <point x="645" y="1054" type="line"/>
      <point x="79" y="958" type="line" smooth="yes"/>
      <point x="63" y="955"/>
      <point x="52" y="939"/>
      <point x="54" y="923" type="curve" smooth="yes"/>
      <point x="57" y="907"/>
      <point x="73" y="896"/>
    </contour>
    <contour>
      <point x="110" y="-1" type="curve" smooth="yes"/>
      <point x="110" y="171" type="line"/>
      <point x="366" y="643" type="line"/>
      <point x="655" y="183" type="line" smooth="yes"/>
      <point x="672" y="156"/>
      <point x="710" y="167"/>
      <point x="710" y="199" type="curve" smooth="yes"/>
      <point x="710" y="799" type="line" smooth="yes"/>
      <point x="710" y="815"/>
      <point x="696" y="829"/>
      <point x="680" y="829" type="curve" smooth="yes"/>
      <point x="664" y="829"/>
      <point x="650" y="815"/>
      <point x="650" y="799" type="curve" smooth="yes"/>
      <point x="650" y="303" type="line"/>
      <point x="390" y="718" type="line" smooth="yes"/>
      <point x="376" y="739"/>
      <point x="350" y="738"/>
      <point x="338" y="716" type="curve" smooth="yes"/>
      <point x="54" y="193" type="line" smooth="yes"/>
      <point x="52" y="190"/>
      <point x="50" y="183"/>
      <point x="50" y="179" type="curve" smooth="yes"/>
      <point x="50" y="-1" type="line" smooth="yes"/>
      <point x="50" y="-17"/>
      <point x="64" y="-31"/>
      <point x="80" y="-31" type="curve" smooth="yes"/>
      <point x="96" y="-31"/>
      <point x="110" y="-17"/>
    </contour>
  </outline>
</glyph>
<glyph name="Ograve" format="1">
  <advance width="761"/>
  <unicode hex="00D2"/>
  <outline>
    <contour>
      <point x="405" y="911" type="curve" smooth="yes"/>
      <point x="414" y="925"/>
      <point x="410" y="944"/>
      <point x="397" y="953" type="curve" smooth="yes"/>
      <point x="97" y="1153" type="line" smooth="yes"/>
      <point x="83" y="1162"/>
      <point x="64" y="1158"/>
      <point x="55" y="1145" type="curve" smooth="yes"/>
      <point x="46" y="1131"/>
      <point x="50" y="1112"/>
      <point x="63" y="1103" type="curve" smooth="yes"/>
      <point x="363" y="903" type="line" smooth="yes"/>
      <point x="377" y="894"/>
      <point x="396" y="898"/>
    </contour>
    <contour>
      <point x="512" y="-11" type="curve" smooth="yes"/>
      <point x="709" y="549" type="line" smooth="yes"/>
      <point x="715" y="565"/>
      <point x="706" y="583"/>
      <point x="690" y="588" type="curve" smooth="yes"/>
      <point x="119" y="765" type="line" smooth="yes"/>
      <point x="99" y="771"/>
      <point x="81" y="758"/>
      <point x="80" y="738" type="curve" smooth="yes"/>
      <point x="53" y="141" type="line" smooth="yes"/>
      <point x="52" y="129"/>
      <point x="61" y="116"/>
      <point x="73" y="112" type="curve" smooth="yes"/>
      <point x="464" y="-29" type="line" smooth="yes"/>
      <point x="469" y="-31"/>
      <point x="474" y="-31"/>
      <point x="479" y="-30" type="curve"/>
      <point x="493" y="-33"/>
      <point x="507" y="-25"/>
    </contour>
    <contour>
      <point x="465" y="34" type="line"/>
      <point x="114" y="161" type="line"/>
      <point x="138" y="696" type="line"/>
      <point x="642" y="540" type="line"/>
    </contour>
  </outline>
</glyph>
<glyph name="Oslash" format="1">
  <advance width="760"/>
  <unicode hex="00D8"/>
  <outline>
    <contour>
      <point x="220" y="238" type="line"/>
      <point x="132" y="276" type="line"/>
      <point x="456" y="623" type="line"/>
      <point x="455" y="551" type="line"/>
    </contour>
    <contour>
      <point x="446" y="142" type="line"/>
      <point x="277" y="214" type="line"/>
      <point x="452" y="448" type="line"/>
    </contour>
    <contour>
      <point x="104" y="-17" type="curve" smooth="yes"/>
      <point x="240" y="165" type="line"/>
      <point x="453" y="73" type="line" smooth="yes"/>
      <point x="458" y="71"/>
      <point x="464" y="71"/>
      <point x="469" y="72" type="curve"/>
      <point x="474" y="71" type="line" smooth="yes"/>
      <point x="491" y="71"/>
      <point x="505" y="84"/>
      <point x="505" y="100" type="curve" smooth="yes"/>
      <point x="514" y="530" type="line"/>
      <point x="704" y="783" type="line" smooth="yes"/>
      <point x="714" y="796"/>
      <point x="711" y="815"/>
      <point x="698" y="825" type="curve" smooth="yes"/>
      <point x="685" y="835"/>
      <point x="666" y="832"/>
      <point x="656" y="819" type="curve" smooth="yes"/>
      <point x="516" y="633" type="line"/>
      <point x="518" y="700" type="line" smooth="yes"/>
      <point x="519" y="730"/>
      <point x="486" y="743"/>
      <point x="466" y="721" type="curve" smooth="yes"/>
      <point x="59" y="286" type="line" smooth="yes"/>
      <point x="44" y="270"/>
      <point x="48" y="247"/>
      <point x="69" y="238" type="curve" smooth="yes"/>
      <point x="183" y="189" type="line"/>
      <point x="56" y="19" type="line" smooth="yes"/>
      <point x="46" y="6"/>
      <point x="49" y="-13"/>
      <point x="62" y="-23" type="curve" smooth="yes"/>
      <point x="75" y="-33"/>
      <point x="94" y="-30"/>
    </contour>
  </outline>
</glyph>
<glyph name="Ugrave" format="1">
  <advance width="759"/>
  <unicode hex="00D9"/>
  <outline>
    <contour>
      <point x="406" y="911" type="curve" smooth="yes"/>
      <point x="415" y="925"/>
      <point x="411" y="944"/>
      <point x="398" y="953" type="curve" smooth="yes"/>
      <point x="98" y="1153" type="line" smooth="yes"/>
      <point x="84" y="1162"/>
      <point x="65" y="1158"/>
      <point x="56" y="1145" type="curve" smooth="yes"/>
      <point x="47" y="1131"/>
      <point x="51" y="1112"/>
      <point x="64" y="1103" type="curve" smooth="yes"/>
      <point x="364" y="903" type="line" smooth="yes"/>
      <point x="378" y="894"/>
      <point x="397" y="898"/>
    </contour>
    <contour>
      <point x="709" y="199" type="curve" smooth="yes"/>
      <point x="709" y="799" type="line" smooth="yes"/>
      <point x="709" y="815"/>
      <point x="695" y="829"/>
      <point x="679" y="829" type="curve" smooth="yes"/>
      <point x="663" y="829"/>
      <point x="649" y="815"/>
      <point x="649" y="799" type="curve" smooth="yes"/>
      <point x="649" y="231" type="line"/>
      <point x="110" y="258" type="line"/>
      <point x="110" y="799" type="line" smooth="yes"/>
      <point x="110" y="815"/>
      <point x="96" y="829"/>
      <point x="80" y="829" type="curve" smooth="yes"/>
      <point x="64" y="829"/>
      <point x="50" y="815"/>
      <point x="50" y="799" type="curve" smooth="yes"/>
      <point x="50" y="229" type="line" smooth="yes"/>
      <point x="50" y="213"/>
      <point x="63" y="200"/>
      <point x="78" y="199" type="curve" smooth="yes"/>
      <point x="677" y="169" type="line" smooth="yes"/>
      <point x="695" y="168"/>
      <point x="709" y="182"/>
    </contour>
  </outline>
</glyph>
<glyph name="Uacute" format="1">
  <advance width="761"/>
  <unicode hex="00DA"/>
  <outline>
    <contour>
      <point x="356" y="911" type="curve" smooth="yes"/>
      <point x="365" y="898"/>
      <point x="384" y="894"/>
      <point x="398" y="903" type="curve" smooth="yes"/>
      <point x="698" y="1103" type="line" smooth="yes"/>
      <point x="711" y="1112"/>
      <point x="715" y="1131"/>
      <point x="706" y="1145" type="curve" smooth="yes"/>
      <point x="697" y="1158"/>
      <point x="678" y="1162"/>
      <point x="664" y="1153" type="curve" smooth="yes"/>
      <point x="364" y="953" type="line" smooth="yes"/>
      <point x="351" y="944"/>
      <point x="347" y="925"/>
    </contour>
    <contour>
      <point x="709" y="199" type="curve" smooth="yes"/>
      <point x="709" y="799" type="line" smooth="yes"/>
      <point x="709" y="815"/>
      <point x="695" y="829"/>
      <point x="679" y="829" type="curve" smooth="yes"/>
      <point x="663" y="829"/>
      <point x="649" y="815"/>
      <point x="649" y="799" type="curve" smooth="yes"/>
      <point x="649" y="231" type="line"/>
      <point x="110" y="258" type="line"/>
      <point x="110" y="799" type="line" smooth="yes"/>
      <point x="110" y="815"/>
      <point x="96" y="829"/>
      <point x="80" y="829" type="curve" smooth="yes"/>
      <point x="64" y="829"/>
      <point x="50" y="815"/>
      <point x="50" y="799" type="curve" smooth="yes"/>
      <point x="50" y="229" type="line" smooth="yes"/>
      <point x="50" y="213"/>
      <point x="63" y="200"/>
      <point x="78" y="199" type="curve" smooth="yes"/>
      <point x="677" y="169" type="line" smooth="yes"/>
      <point x="695" y="168"/>
      <point x="709" y="182"/>
    </contour>
  </outline>
</glyph>
<glyph name="aacute" format="1">
  <advance width="748"/>
  <unicode hex="00E1"/>
  <outline>
    <contour>
      <point x="343" y="911" type="curve" smooth="yes"/>
      <point x="352" y="898"/>
      <point x="371" y="894"/>
      <point x="385" y="903" type="curve" smooth="yes"/>
      <point x="685" y="1103" type="line" smooth="yes"/>
      <point x="698" y="1112"/>
      <point x="702" y="1131"/>
      <point x="693" y="1145" type="curve" smooth="yes"/>
      <point x="684" y="1158"/>
      <point x="665" y="1162"/>
      <point x="651" y="1153" type="curve" smooth="yes"/>
      <point x="351" y="953" type="line" smooth="yes"/>
      <point x="338" y="944"/>
      <point x="334" y="925"/>
    </contour>
    <contour>
      <point x="668" y="-34" type="curve" smooth="yes"/>
      <point x="684" y="-34"/>
      <point x="698" y="-20"/>
      <point x="698" y="-4" type="curve" smooth="yes"/>
      <point x="698" y="360" type="line" smooth="yes"/>
      <point x="698" y="367"/>
      <point x="694" y="376"/>
      <point x="690" y="381" type="curve" smooth="yes"/>
      <point x="288" y="816" type="line" smooth="yes"/>
      <point x="271" y="835"/>
      <point x="245" y="829"/>
      <point x="237" y="805" type="curve" smooth="yes"/>
      <point x="52" y="235" type="line" smooth="yes"/>
      <point x="44" y="212"/>
      <point x="62" y="192"/>
      <point x="86" y="197" type="curve" smooth="yes"/>
      <point x="638" y="309" type="line"/>
      <point x="638" y="-4" type="line" smooth="yes"/>
      <point x="638" y="-20"/>
      <point x="652" y="-34"/>
    </contour>
    <contour>
      <point x="125" y="266" type="line"/>
      <point x="279" y="738" type="line"/>
      <point x="621" y="367" type="line"/>
    </contour>
  </outline>
</glyph>
<glyph name="atilde" format="1">
  <advance width="760"/>
  <unicode hex="00E3"/>
  <outline>
    <contour>
      <point x="85" y="898" type="curve" smooth="yes"/>
      <point x="673" y="999" type="line" smooth="yes"/>
      <point x="686" y="1001"/>
      <point x="697" y="1012"/>
      <point x="698" y="1025" type="curve" smooth="yes"/>
      <point x="710" y="1125" type="line" smooth="yes"/>
      <point x="712" y="1141"/>
      <point x="700" y="1156"/>
      <point x="683" y="1158" type="curve" smooth="yes"/>
      <point x="667" y="1160"/>
      <point x="652" y="1148"/>
      <point x="650" y="1131" type="curve" smooth="yes"/>
      <point x="641" y="1054" type="line"/>
      <point x="75" y="958" type="line" smooth="yes"/>
      <point x="59" y="955"/>
      <point x="48" y="939"/>
      <point x="50" y="923" type="curve" smooth="yes"/>
      <point x="53" y="907"/>
      <point x="69" y="896"/>
    </contour>
    <contour>
      <point x="680" y="-34" type="curve" smooth="yes"/>
      <point x="696" y="-34"/>
      <point x="710" y="-20"/>
      <point x="710" y="-4" type="curve" smooth="yes"/>
      <point x="710" y="360" type="line" smooth="yes"/>
      <point x="710" y="367"/>
      <point x="706" y="376"/>
      <point x="702" y="381" type="curve" smooth="yes"/>
      <point x="300" y="816" type="line" smooth="yes"/>
      <point x="283" y="835"/>
      <point x="257" y="829"/>
      <point x="249" y="805" type="curve" smooth="yes"/>
      <point x="64" y="235" type="line" smooth="yes"/>
      <point x="56" y="212"/>
      <point x="74" y="192"/>
      <point x="98" y="197" type="curve" smooth="yes"/>
      <point x="650" y="309" type="line"/>
      <point x="650" y="-4" type="line" smooth="yes"/>
      <point x="650" y="-20"/>
      <point x="664" y="-34"/>
    </contour>
    <contour>
      <point x="137" y="266" type="line"/>
      <point x="291" y="738" type="line"/>
      <point x="633" y="367" type="line"/>
    </contour>
  </outline>
</glyph>
<glyph name="ccedilla" format="1">
  <advance width="754"/>
  <unicode hex="00E7"/>
  <outline>
    <contour>
      <point x="262" y="87" type="curve" smooth="yes"/>
      <point x="680" y="172" type="line" smooth="yes"/>
      <point x="696" y="175"/>
      <point x="707" y="191"/>
      <point x="703" y="207" type="curve" smooth="yes"/>
      <point x="700" y="223"/>
      <point x="684" y="234"/>
      <point x="668" y="230" type="curve" smooth="yes"/>
      <point x="277" y="151" type="line"/>
      <point x="123" y="650" type="line"/>
      <point x="670" y="571" type="line" smooth="yes"/>
      <point x="686" y="569"/>
      <point x="701" y="581"/>
      <point x="704" y="597" type="curve" smooth="yes"/>
      <point x="706" y="613"/>
      <point x="694" y="628"/>
      <point x="678" y="631" type="curve" smooth="yes"/>
      <point x="85" y="717" type="line" smooth="yes"/>
      <point x="61" y="720"/>
      <point x="45" y="701"/>
      <point x="52" y="678" type="curve" smooth="yes"/>
      <point x="227" y="107" type="line" smooth="yes"/>
      <point x="232" y="93"/>
      <point x="247" y="84"/>
    </contour>
  </outline>
</glyph>
<glyph name="eacute" format="1">
  <advance width="709"/>
  <unicode hex="00E9"/>
  <outline>
    <contour>
      <point x="299" y="911" type="curve" smooth="yes"/>
      <point x="308" y="898"/>
      <point x="327" y="894"/>
      <point x="341" y="903" type="curve" smooth="yes"/>
      <point x="641" y="1103" type="line" smooth="yes"/>
      <point x="654" y="1112"/>
      <point x="658" y="1131"/>
      <point x="649" y="1145" type="curve" smooth="yes"/>
      <point x="640" y="1158"/>
      <point x="621" y="1162"/>
      <point x="607" y="1153" type="curve" smooth="yes"/>
      <point x="307" y="953" type="line" smooth="yes"/>
      <point x="294" y="944"/>
      <point x="290" y="925"/>
    </contour>
    <contour>
      <point x="452" y="-21" type="curve" smooth="yes"/>
      <point x="650" y="175" type="line" smooth="yes"/>
      <point x="662" y="186"/>
      <point x="662" y="206"/>
      <point x="650" y="217" type="curve" smooth="yes"/>
      <point x="639" y="229"/>
      <point x="619" y="229"/>
      <point x="608" y="217" type="curve" smooth="yes"/>
      <point x="430" y="42" type="line"/>
      <point x="133" y="347" type="line"/>
      <point x="640" y="575" type="line" smooth="yes"/>
      <point x="655" y="581"/>
      <point x="662" y="599"/>
      <point x="655" y="614" type="curve" smooth="yes"/>
      <point x="649" y="629"/>
      <point x="631" y="636"/>
      <point x="616" y="629" type="curve" smooth="yes"/>
      <point x="69" y="385" type="line" smooth="yes"/>
      <point x="49" y="375"/>
      <point x="44" y="352"/>
      <point x="60" y="336" type="curve" smooth="yes"/>
      <point x="408" y="-21" type="line" smooth="yes"/>
      <point x="414" y="-27"/>
      <point x="423" y="-30"/>
      <point x="431" y="-30" type="curve"/>
      <point x="439" y="-30"/>
      <point x="446" y="-27"/>
    </contour>
  </outline>
</glyph>
<glyph name="igrave" format="1">
  <advance width="760"/>
  <unicode hex="00EC"/>
  <outline>
    <contour>
      <point x="409" y="911" type="curve" smooth="yes"/>
      <point x="418" y="925"/>
      <point x="414" y="944"/>
      <point x="401" y="953" type="curve" smooth="yes"/>
      <point x="101" y="1153" type="line" smooth="yes"/>
      <point x="87" y="1162"/>
      <point x="68" y="1158"/>
      <point x="59" y="1145" type="curve" smooth="yes"/>
      <point x="50" y="1131"/>
      <point x="54" y="1112"/>
      <point x="67" y="1103" type="curve" smooth="yes"/>
      <point x="367" y="903" type="line" smooth="yes"/>
      <point x="381" y="894"/>
      <point x="400" y="898"/>
    </contour>
    <contour>
      <point x="106" y="-16" type="curve" smooth="yes"/>
      <point x="404" y="491" type="line"/>
      <point x="701" y="777" type="line" smooth="yes"/>
      <point x="712" y="789"/>
      <point x="713" y="808"/>
      <point x="702" y="820" type="curve" smooth="yes"/>
      <point x="690" y="831"/>
      <point x="671" y="832"/>
      <point x="659" y="821" type="curve" smooth="yes"/>
      <point x="359" y="531" type="line" smooth="yes"/>
      <point x="358" y="530"/>
      <point x="355" y="527"/>
      <point x="354" y="525" type="curve" smooth="yes"/>
      <point x="54" y="14" type="line" smooth="yes"/>
      <point x="46" y="0"/>
      <point x="51" y="-19"/>
      <point x="65" y="-27" type="curve" smooth="yes"/>
      <point x="79" y="-35"/>
      <point x="98" y="-30"/>
    </contour>
  </outline>
</glyph>
<glyph name="iacute" format="1">
  <advance width="764"/>
  <unicode hex="00ED"/>
  <outline>
    <contour>
      <point x="359" y="911" type="curve" smooth="yes"/>
      <point x="368" y="898"/>
      <point x="387" y="894"/>
      <point x="401" y="903" type="curve" smooth="yes"/>
      <point x="701" y="1103" type="line" smooth="yes"/>
      <point x="714" y="1112"/>
      <point x="718" y="1131"/>
      <point x="709" y="1145" type="curve" smooth="yes"/>
      <point x="700" y="1158"/>
      <point x="681" y="1162"/>
      <point x="667" y="1153" type="curve" smooth="yes"/>
      <point x="367" y="953" type="line" smooth="yes"/>
      <point x="354" y="944"/>
      <point x="350" y="925"/>
    </contour>
    <contour>
      <point x="106" y="-16" type="curve" smooth="yes"/>
      <point x="404" y="491" type="line"/>
      <point x="701" y="777" type="line" smooth="yes"/>
      <point x="712" y="789"/>
      <point x="713" y="808"/>
      <point x="702" y="820" type="curve" smooth="yes"/>
      <point x="690" y="831"/>
      <point x="671" y="832"/>
      <point x="659" y="821" type="curve" smooth="yes"/>
      <point x="359" y="531" type="line" smooth="yes"/>
      <point x="358" y="530"/>
      <point x="355" y="527"/>
      <point x="354" y="525" type="curve" smooth="yes"/>
      <point x="54" y="14" type="line" smooth="yes"/>
      <point x="46" y="0"/>
      <point x="51" y="-19"/>
      <point x="65" y="-27" type="curve" smooth="yes"/>
      <point x="79" y="-35"/>
      <point x="98" y="-30"/>
    </contour>
  </outline>
</glyph>
<glyph name="icircumflex" format="1">
  <advance width="764"/>
  <unicode hex="00EE"/>
  <outline>
    <contour>
      <point x="54" y="928" type="curve" smooth="yes"/>
      <point x="54" y="912"/>
      <point x="68" y="898"/>
      <point x="84" y="898" type="curve" smooth="yes"/>
      <point x="684" y="898" type="line" smooth="yes"/>
      <point x="700" y="898"/>
      <point x="714" y="912"/>
      <point x="714" y="928" type="curve" smooth="yes"/>
      <point x="714" y="944"/>
      <point x="700" y="958"/>
      <point x="684" y="958" type="curve" smooth="yes"/>
      <point x="84" y="958" type="line" smooth="yes"/>
      <point x="68" y="958"/>
      <point x="54" y="944"/>
    </contour>
    <contour>
      <point x="106" y="-16" type="curve" smooth="yes"/>
      <point x="404" y="491" type="line"/>
      <point x="701" y="777" type="line" smooth="yes"/>
      <point x="712" y="789"/>
      <point x="713" y="808"/>
      <point x="702" y="820" type="curve" smooth="yes"/>
      <point x="690" y="831"/>
      <point x="671" y="832"/>
      <point x="659" y="821" type="curve" smooth="yes"/>
      <point x="359" y="531" type="line" smooth="yes"/>
      <point x="358" y="530"/>
      <point x="355" y="527"/>
      <point x="354" y="525" type="curve" smooth="yes"/>
      <point x="54" y="14" type="line" smooth="yes"/>
      <point x="46" y="0"/>
      <point x="51" y="-19"/>
      <point x="65" y="-27" type="curve" smooth="yes"/>
      <point x="79" y="-35"/>
      <point x="98" y="-30"/>
    </contour>
  </outline>
</glyph>
<glyph name="oacute" format="1">
  <advance width="758"/>
  <unicode hex="00F3"/>
  <outline>
    <contour>
      <point x="352" y="911" type="curve" smooth="yes"/>
      <point x="361" y="898"/>
      <point x="380" y="894"/>
      <point x="394" y="903" type="curve" smooth="yes"/>
      <point x="694" y="1103" type="line" smooth="yes"/>
      <point x="707" y="1112"/>
      <point x="711" y="1131"/>
      <point x="702" y="1145" type="curve" smooth="yes"/>
      <point x="693" y="1158"/>
      <point x="674" y="1162"/>
      <point x="660" y="1153" type="curve" smooth="yes"/>
      <point x="360" y="953" type="line" smooth="yes"/>
      <point x="347" y="944"/>
      <point x="343" y="925"/>
    </contour>
    <contour>
      <point x="509" y="-11" type="curve" smooth="yes"/>
      <point x="706" y="549" type="line" smooth="yes"/>
      <point x="712" y="565"/>
      <point x="703" y="583"/>
      <point x="687" y="588" type="curve" smooth="yes"/>
      <point x="116" y="765" type="line" smooth="yes"/>
      <point x="96" y="771"/>
      <point x="78" y="758"/>
      <point x="77" y="738" type="curve" smooth="yes"/>
      <point x="50" y="141" type="line" smooth="yes"/>
      <point x="49" y="129"/>
      <point x="58" y="116"/>
      <point x="70" y="112" type="curve" smooth="yes"/>
      <point x="461" y="-29" type="line" smooth="yes"/>
      <point x="466" y="-31"/>
      <point x="471" y="-31"/>
      <point x="476" y="-30" type="curve"/>
      <point x="490" y="-33"/>
      <point x="504" y="-25"/>
    </contour>
    <contour>
      <point x="462" y="34" type="line"/>
      <point x="111" y="161" type="line"/>
      <point x="135" y="696" type="line"/>
      <point x="639" y="540" type="line"/>
    </contour>
  </outline>
</glyph>
<glyph name="ocircumflex" format="1">
  <advance width="761"/>
  <unicode hex="00F4"/>
  <outline>
    <contour>
      <point x="50" y="928" type="curve" smooth="yes"/>
      <point x="50" y="912"/>
      <point x="64" y="898"/>
      <point x="80" y="898" type="curve" smooth="yes"/>
      <point x="680" y="898" type="line" smooth="yes"/>
      <point x="696" y="898"/>
      <point x="710" y="912"/>
      <point x="710" y="928" type="curve" smooth="yes"/>
      <point x="710" y="944"/>
      <point x="696" y="958"/>
      <point x="680" y="958" type="curve" smooth="yes"/>
      <point x="80" y="958" type="line" smooth="yes"/>
      <point x="64" y="958"/>
      <point x="50" y="944"/>
    </contour>
    <contour>
      <point x="512" y="-11" type="curve" smooth="yes"/>
      <point x="709" y="549" type="line" smooth="yes"/>
      <point x="715" y="565"/>
      <point x="706" y="583"/>
      <point x="690" y="588" type="curve" smooth="yes"/>
      <point x="119" y="765" type="line" smooth="yes"/>
      <point x="99" y="771"/>
      <point x="81" y="758"/>
      <point x="80" y="738" type="curve" smooth="yes"/>
      <point x="53" y="141" type="line" smooth="yes"/>
      <point x="52" y="129"/>
      <point x="61" y="116"/>
      <point x="73" y="112" type="curve" smooth="yes"/>
      <point x="464" y="-29" type="line" smooth="yes"/>
      <point x="469" y="-31"/>
      <point x="474" y="-31"/>
      <point x="479" y="-30" type="curve"/>
      <point x="493" y="-33"/>
      <point x="507" y="-25"/>
    </contour>
    <contour>
      <point x="465" y="34" type="line"/>
      <point x="114" y="161" type="line"/>
      <point x="138" y="696" type="line"/>
      <point x="642" y="540" type="line"/>
    </contour>
  </outline>
</glyph>
<glyph name="otilde" format="1">
  <advance width="761"/>
  <unicode hex="00F5"/>
  <outline>
    <contour>
      <point x="85" y="898" type="curve" smooth="yes"/>
      <point x="673" y="999" type="line" smooth="yes"/>
      <point x="686" y="1001"/>
      <point x="697" y="1012"/>
      <point x="698" y="1025" type="curve" smooth="yes"/>
      <point x="710" y="1125" type="line" smooth="yes"/>
      <point x="712" y="1141"/>
      <point x="700" y="1156"/>
      <point x="683" y="1158" type="curve" smooth="yes"/>
      <point x="667" y="1160"/>
      <point x="652" y="1148"/>
      <point x="650" y="1131" type="curve" smooth="yes"/>
      <point x="641" y="1054" type="line"/>
      <point x="75" y="958" type="line" smooth="yes"/>
      <point x="59" y="955"/>
      <point x="48" y="939"/>
      <point x="50" y="923" type="curve" smooth="yes"/>
      <point x="53" y="907"/>
      <point x="69" y="896"/>
    </contour>
    <contour>
      <point x="512" y="-11" type="curve" smooth="yes"/>
      <point x="709" y="549" type="line" smooth="yes"/>
      <point x="715" y="565"/>
      <point x="706" y="583"/>
      <point x="690" y="588" type="curve" smooth="yes"/>
      <point x="119" y="765" type="line" smooth="yes"/>
      <point x="99" y="771"/>
      <point x="81" y="758"/>
      <point x="80" y="738" type="curve" smooth="yes"/>
      <point x="53" y="141" type="line" smooth="yes"/>
      <point x="52" y="129"/>
      <point x="61" y="116"/>
      <point x="73" y="112" type="curve" smooth="yes"/>
      <point x="464" y="-29" type="line" smooth="yes"/>
      <point x="469" y="-31"/>
      <point x="474" y="-31"/>
      <point x="479" y="-30" type="curve"/>
      <point x="493" y="-33"/>
      <point x="507" y="-25"/>
    </contour>
    <contour>
      <point x="465" y="34" type="line"/>
      <point x="114" y="161" type="line"/>
      <point x="138" y="696" type="line"/>
      <point x="642" y="540" type="line"/>
    </contour>
  </outline>
</glyph>
<glyph name="ucircumflex" format="1">
  <advance width="761"/>
  <unicode hex="00FB"/>
  <outline>
    <contour>
      <point x="51" y="928" type="curve" smooth="yes"/>
      <point x="51" y="912"/>
      <point x="65" y="898"/>
      <point x="81" y="898" type="curve" smooth="yes"/>
      <point x="681" y="898" type="line" smooth="yes"/>
      <point x="697" y="898"/>
      <point x="711" y="912"/>
      <point x="711" y="928" type="curve" smooth="yes"/>
      <point x="711" y="944"/>
      <point x="697" y="958"/>
      <point x="681" y="958" type="curve" smooth="yes"/>
      <point x="81" y="958" type="line" smooth="yes"/>
      <point x="65" y="958"/>
      <point x="51" y="944"/>
    </contour>
    <contour>
      <point x="709" y="199" type="curve" smooth="yes"/>
      <point x="709" y="799" type="line" smooth="yes"/>
      <point x="709" y="815"/>
      <point x="695" y="829"/>
      <point x="679" y="829" type="curve" smooth="yes"/>
      <point x="663" y="829"/>
      <point x="649" y="815"/>
      <point x="649" y="799" type="curve" smooth="yes"/>
      <point x="649" y="231" type="line"/>
      <point x="110" y="258" type="line"/>
      <point x="110" y="799" type="line" smooth="yes"/>
      <point x="110" y="815"/>
      <point x="96" y="829"/>
      <point x="80" y="829" type="curve" smooth="yes"/>
      <point x="64" y="829"/>
      <point x="50" y="815"/>
      <point x="50" y="799" type="curve" smooth="yes"/>
      <point x="50" y="229" type="line" smooth="yes"/>
      <point x="50" y="213"/>
      <point x="63" y="200"/>
      <point x="78" y="199" type="curve" smooth="yes"/>
      <point x="677" y="169" type="line" smooth="yes"/>
      <point x="695" y="168"/>
      <point x="709" y="182"/>
    </contour>
  </outline>
</glyph>
<glyph name="tilde" format="1">
  <advance width="760"/>
  <unicode hex="02DC"/>
  <outline>
    <contour>
      <point x="85" y="898" type="curve" smooth="yes"/>
      <point x="673" y="999" type="line" smooth="yes"/>
      <point x="686" y="1001"/>
      <point x="697" y="1012"/>
      <point x="698" y="1025" type="curve" smooth="yes"/>
      <point x="710" y="1125" type="line" smooth="yes"/>
      <point x="712" y="1141"/>
      <point x="700" y="1156"/>
      <point x="683" y="1158" type="curve" smooth="yes"/>
      <point x="667" y="1160"/>
      <point x="652" y="1148"/>
      <point x="650" y="1131" type="curve" smooth="yes"/>
      <point x="641" y="1054" type="line"/>
      <point x="75" y="958" type="line" smooth="yes"/>
      <point x="59" y="955"/>
      <point x="48" y="939"/>
      <point x="50" y="923" type="curve" smooth="yes"/>
      <point x="53" y="907"/>
      <point x="69" y="896"/>
    </contour>
  </outline>
</glyph>
<glyph name="bullet" format="1">
  <advance width="360"/>
  <unicode hex="2022"/>
  <outline>
    <contour>
      <point x="301" y="182" type="curve" smooth="yes"/>
      <point x="313" y="193"/>
      <point x="313" y="213"/>
      <point x="301" y="224" type="curve" smooth="yes"/>
      <point x="222" y="303" type="line"/>
      <point x="301" y="382" type="line" smooth="yes"/>
      <point x="313" y="393"/>
      <point x="313" y="413"/>
      <point x="301" y="424" type="curve" smooth="yes"/>
      <point x="290" y="436"/>
      <point x="270" y="436"/>
      <point x="259" y="424" type="curve" smooth="yes"/>
      <point x="180" y="345" type="line"/>
      <point x="101" y="424" type="line" smooth="yes"/>
      <point x="90" y="436"/>
      <point x="70" y="436"/>
      <point x="59" y="424" type="curve" smooth="yes"/>
      <point x="47" y="413"/>
      <point x="47" y="393"/>
      <point x="59" y="382" type="curve" smooth="yes"/>
      <point x="138" y="303" type="line"/>
      <point x="59" y="224" type="line" smooth="yes"/>
      <point x="47" y="213"/>
      <point x="47" y="193"/>
      <point x="59" y="182" type="curve" smooth="yes"/>
      <point x="70" y="170"/>
      <point x="90" y="170"/>
      <point x="101" y="182" type="curve" smooth="yes"/>
      <point x="180" y="261" type="line"/>
      <point x="259" y="182" type="line" smooth="yes"/>
      <point x="270" y="170"/>
      <point x="290" y="170"/>
    </contour>
  </outline>
</glyph>
<glyph name="minus" format="1">
  <advance width="560"/>
  <unicode hex="2212"/>
  <outline>
    <contour>
      <point x="50" y="322" type="curve" smooth="yes"/>
      <point x="50" y="306"/>
      <point x="64" y="292"/>
      <point x="80" y="292" type="curve" smooth="yes"/>
      <point x="480" y="292" type="line" smooth="yes"/>
      <point x="496" y="292"/>
      <point x="510" y="306"/>
      <point x="510" y="322" type="curve" smooth="yes"/>
      <point x="510" y="338"/>
      <point x="496" y="352"/>
      <point x="480" y="352" type="curve" smooth="yes"/>
      <point x="80" y="352" type="line" smooth="yes"/>
      <point x="64" y="352"/>
      <point x="50" y="338"/>
    </contour>
  </outline>
</glyph>
